<svg viewBox="0 0 300 80" preserveAspectRatio="xMidYMid meet" class="css-1y5supu" id="bgdbhafh"><defs id="SvgjsDefs1478"></defs><g id="SvgjsG1479" featurekey="root" fill="#ffffff"></g><g id="SvgjsG1480" featurekey="text4" fill="#212121" transform="matrix(1,0,0,1,10,40)"><path d=""></path></g><g id="SvgjsG1481" featurekey="text1" fill="#4c0aa8" transform="matrix(4.059539992152512,0,0,4.059539992152512,29.025710484152327,-12.165088512011877)"><path d="M1.4 7.460000000000001 c-0.32 0.4 -0.66 0.76 -1 1.14 l-0.1 0.1 l-0.06 0 l0 -0.36 l0.34 -0.34 c0.36 -0.4 0.68 -0.82 0.92 -1.32 c0.14 -0.32 0.26 -0.64 0.32 -0.98 l0.34 0 c0 0.04 0 0.06 -0.02 0.1 c-0.12 0.6 -0.34 1.16 -0.74 1.66 z M1.18 5.699999999999999 l0.32 0 c-0.2 0.86 -0.66 1.58 -1.26 2.22 l0 -0.44 c0.44 -0.52 0.76 -1.12 0.94 -1.78 z M0.56 5.699999999999999 l0.3 0 l0 0.04 c-0.14 0.46 -0.34 0.88 -0.62 1.26 l0 -0.56 z M2.04 7.74 c-0.26 0.3 -0.54 0.58 -0.82 0.88 l-0.08 0.08 l-0.54 0 c0.08 0 0.14 -0.02 0.18 -0.08 c0.2 -0.2 0.4 -0.4 0.6 -0.62 c0.62 -0.64 1.02 -1.4 1.14 -2.3 l0.36 0 c0 0.04 -0.02 0.08 -0.02 0.1 c-0.1 0.72 -0.36 1.4 -0.82 1.94 z M2.14 8.62 l-0.08 0.06 l0.02 0.02 l-0.58 0 c0.04 0 0.1 -0.02 0.12 -0.06 l0.44 -0.4 c0.72 -0.68 1.08 -1.54 1.16 -2.54 l0.34 0 c0 0.08 -0.02 0.18 -0.02 0.26 c-0.08 1 -0.46 1.86 -1.24 2.52 c-0.06 0.04 -0.1 0.1 -0.16 0.14 z M4.12 6.74 c-0.1 0.76 -0.38 1.4 -0.96 1.92 l-0.04 0.04 l-0.58 0 c0.02 0 0.06 -0.02 0.08 -0.04 c0.96 -0.76 1.24 -1.8 1.26 -2.96 l0.32 0 c-0.02 0.34 -0.04 0.7 -0.08 1.04 z M4.72 6.9399999999999995 c-0.04 0.62 -0.2 1.22 -0.56 1.74 l0 0.02 l-0.62 0 c0.08 0 0.12 -0.02 0.18 -0.08 c0.34 -0.38 0.54 -0.84 0.64 -1.34 c0.1 -0.52 0.14 -1.06 0.14 -1.58 l0.28 0 c-0.02 0.42 -0.02 0.84 -0.06 1.24 z M4.58 9.78 l0 -1.08 l-0.12 0 c0.08 0 0.1 -0.02 0.12 -0.08 l0.18 -0.38 c0.18 -0.52 0.26 -1.04 0.28 -1.58 c0.02 -0.32 0.02 -0.64 0.02 -0.96 l0.24 0 c0.02 0.64 0 1.28 -0.08 1.9 c-0.08 0.54 -0.24 1.06 -0.56 1.52 c-0.14 0.22 -0.04 0.44 -0.08 0.66 z M4.64 10.28 c-0.02 0.02 -0.06 0.06 -0.06 0.08 l0 -0.58 c0.32 -0.34 0.62 -0.9 0.76 -1.48 c0.22 -0.84 0.24 -1.72 0.2 -2.6 l0.24 0 l0 0.1 c0.02 0.72 0 1.42 -0.1 2.12 c-0.14 0.88 -0.46 1.66 -1.04 2.36 z M5.9 8.04 c0.1 -0.74 0.12 -1.48 0.1 -2.22 l0 -0.12 l0.2 0 l0.02 0.2 c-0.02 0.44 -0.02 0.9 -0.02 1.34 c-0.06 1.22 -0.38 2.38 -1.02 3.44 c-0.2 0.34 -0.38 0.72 -0.56 1.08 c-0.02 0.08 -0.04 0.16 -0.04 0.24 l0 -1.04 c0.14 -0.18 0.24 -0.36 0.36 -0.52 c0.5 -0.72 0.82 -1.52 0.96 -2.4 z M5.74 17.72 l-0.12 1.46 c-0.02 0.28 -0.06 0.54 -0.08 0.82 l-0.26 0 c0.02 -0.48 0.06 -0.96 0.08 -1.44 c0.06 -0.86 0.04 -1.72 -0.14 -2.56 c-0.1 -0.48 -0.2 -0.98 -0.32 -1.46 c-0.2 -0.98 -0.16 -1.92 0.18 -2.84 c0.16 -0.38 0.32 -0.76 0.5 -1.14 c0.54 -1.16 0.82 -2.38 0.84 -3.68 l0 -1.18 l0.2 0 l0 1.26 c-0.02 0.6 -0.08 1.2 -0.22 1.8 c-0.16 0.74 -0.38 1.46 -0.68 2.16 c-0.42 1.04 -0.54 2.12 -0.36 3.24 c0.08 0.48 0.14 0.96 0.22 1.44 c0.12 0.7 0.2 1.4 0.16 2.12 z M6.14 12.84 l0.24 1.28 c0.18 1.06 0.26 2.14 0.12 3.2 c-0.12 0.9 -0.3 1.78 -0.44 2.68 l-0.26 0 c0.04 -0.2 0.06 -0.4 0.1 -0.62 c0.06 -0.64 0.16 -1.28 0.22 -1.94 c0.08 -0.78 -0.02 -1.58 -0.12 -2.36 c-0.06 -0.46 -0.12 -0.92 -0.2 -1.36 c-0.16 -1 -0.08 -1.96 0.24 -2.9 c0.26 -0.74 0.46 -1.5 0.6 -2.26 c0.12 -0.54 0.16 -1.1 0.18 -1.64 c0.02 -0.4 0.02 -0.82 0.02 -1.22 l0.2 0 c0.02 0.94 -0.02 1.9 -0.2 2.82 c-0.16 0.78 -0.34 1.54 -0.54 2.32 c-0.16 0.66 -0.26 1.32 -0.16 2 z M7.44 16.36 c-0.1 0.72 -0.3 1.4 -0.5 2.08 c-0.14 0.52 -0.26 1.04 -0.38 1.56 l-0.24 0 c0 -0.04 0 -0.08 0.02 -0.12 c0.16 -0.82 0.36 -1.62 0.5 -2.42 c0.26 -1.34 0.26 -2.66 -0.12 -3.98 c-0.12 -0.38 -0.2 -0.78 -0.26 -1.18 c-0.08 -0.58 0.04 -1.16 0.16 -1.74 c0.14 -0.74 0.32 -1.46 0.44 -2.2 c0.16 -0.84 0.2 -1.7 0.2 -2.56 l0 -0.1 l0.22 0 l0 0.1 c-0.02 0.84 -0.08 1.68 -0.22 2.52 c-0.12 0.72 -0.28 1.46 -0.42 2.18 c-0.08 0.54 -0.14 1.06 -0.06 1.6 c0.06 0.46 0.2 0.9 0.36 1.34 c0.38 0.94 0.44 1.92 0.3 2.92 z M8.08 13.559999999999999 l0 3.58 c-0.24 0.64 -0.5 1.24 -0.72 1.84 c-0.12 0.34 -0.22 0.68 -0.32 1.02 l-0.24 0 c0.16 -0.56 0.32 -1.12 0.5 -1.66 c0.24 -0.72 0.46 -1.42 0.6 -2.16 c0.16 -0.96 0.08 -1.88 -0.32 -2.78 c-0.12 -0.22 -0.2 -0.44 -0.28 -0.66 c-0.22 -0.52 -0.3 -1.04 -0.28 -1.6 c0.02 -0.52 0.1 -1.04 0.18 -1.56 c0.1 -0.52 0.22 -1.02 0.3 -1.54 c0.12 -0.78 0.2 -1.56 0.2 -2.34 l0.22 0 l0 0.1 c0 0.24 -0.02 0.48 -0.04 0.72 c-0.08 0.62 -0.16 1.24 -0.26 1.86 c-0.12 0.74 -0.3 1.48 -0.36 2.22 c-0.04 0.66 0.02 1.3 0.3 1.9 c0.16 0.34 0.32 0.7 0.5 1.04 z M8.02 12.059999999999999 c0.02 0.02 0.02 0.06 0.04 0.08 c0.02 -0.1 0.02 -0.2 0.02 -0.28 l0 1.04 c0 -0.04 -0.02 -0.1 -0.04 -0.16 c-0.12 -0.26 -0.28 -0.54 -0.38 -0.82 c-0.24 -0.66 -0.2 -1.36 -0.1 -2.04 c0.08 -0.6 0.22 -1.2 0.32 -1.8 l0.24 -1.74 c0.04 -0.2 0.04 -0.42 0.06 -0.64 l0.24 0 c0 0.1 -0.02 0.22 -0.02 0.32 c-0.1 0.9 -0.28 1.78 -0.44 2.66 c-0.12 0.58 -0.24 1.18 -0.24 1.78 c-0.02 0.56 0.06 1.1 0.3 1.6 z M8.88 6.18 c-0.16 0.8 -0.34 1.6 -0.5 2.4 c-0.02 0.04 -0.02 0.08 -0.02 0.12 l-0.26 0 c0.02 -0.04 0.06 -0.06 0.06 -0.1 c0.1 -0.44 0.2 -0.88 0.28 -1.34 l0.24 -1.56 l0.28 0 c-0.02 0.16 -0.04 0.32 -0.08 0.48 z M8.88 8.26 c-0.02 0.14 -0.06 0.28 -0.1 0.44 l-0.26 0 c0.04 -0.02 0.06 -0.06 0.08 -0.12 c0.2 -0.96 0.42 -1.92 0.64 -2.88 l0.28 0 c-0.02 0.1 -0.02 0.2 -0.06 0.3 c-0.18 0.76 -0.38 1.52 -0.58 2.26 z M10.1 5.84 l-0.54 1.8 c-0.1 0.36 -0.2 0.7 -0.3 1.06 l-0.3 0 c0.04 0 0.08 -0.04 0.08 -0.06 c0.22 -0.78 0.42 -1.56 0.64 -2.34 c0.06 -0.2 0.1 -0.4 0.14 -0.6 l0.32 0 c-0.02 0.04 -0.02 0.1 -0.04 0.14 z M10.5 6.640000000000001 c-0.2 0.58 -0.4 1.14 -0.58 1.72 c-0.04 0.12 -0.06 0.22 -0.08 0.34 l-0.38 0 c0.06 0 0.1 -0.02 0.1 -0.08 c0.02 -0.1 0.04 -0.2 0.08 -0.28 l0.84 -2.64 l0.34 0 c-0.1 0.32 -0.22 0.62 -0.32 0.94 z M11.22 6.5600000000000005 c-0.24 0.58 -0.48 1.16 -0.64 1.78 c-0.04 0.12 -0.06 0.22 -0.1 0.36 l-0.44 0 c0.08 0 0.12 -0.02 0.14 -0.1 c0.04 -0.2 0.08 -0.4 0.16 -0.6 l0.66 -1.78 c0.06 -0.18 0.12 -0.34 0.18 -0.52 l0.38 0 c0 0.04 -0.02 0.08 -0.02 0.1 c-0.1 0.26 -0.2 0.5 -0.32 0.76 z M11.84 6.92 c-0.22 0.48 -0.42 0.96 -0.54 1.46 l-0.06 0.32 l-0.42 0 c0.12 -0.42 0.24 -0.82 0.38 -1.2 c0.24 -0.6 0.5 -1.2 0.76 -1.8 l0.38 0 c-0.02 0.04 -0.02 0.08 -0.04 0.12 c-0.16 0.38 -0.3 0.74 -0.46 1.1 z M12.06 8.7 l-0.42 0 c0 -0.04 0 -0.06 0.02 -0.1 c0.12 -0.72 0.44 -1.4 0.76 -2.06 l0 0.96 l-0.04 0.06 c-0.08 0.26 -0.18 0.52 -0.24 0.78 c-0.04 0.12 -0.06 0.24 -0.08 0.36 z M8.08 8.74 l0 -0.04 l0.02 0 c-0.02 0.02 -0.02 0.04 -0.02 0.04 z M8.44 8.7 l0.08 0 l-0.08 0 z M8.08 11.5 l-0.02 -0.12 c-0.12 -0.46 -0.14 -0.94 -0.1 -1.42 c0.02 -0.4 0.08 -0.82 0.12 -1.22 l0 2.76 z M8.08 11.86 l0 -0.36 c0.02 0.12 0 0.24 0 0.36 z M4.96 16.84 c0.16 1.04 0.1 2.1 0.04 3.16 l-0.28 0 c0.04 -1.02 0.06 -2.04 -0.14 -3.04 l0 -1.88 c0 0.08 0.02 0.18 0.04 0.26 c0.1 0.5 0.26 1 0.34 1.5 z M8.08 17.9 l0 -0.62 c0 0.2 0.02 0.42 0 0.62 z M8.06 18 l0.02 -0.1 l0 0.82 c-0.22 0.42 -0.4 0.84 -0.52 1.28 l-0.26 0 c0.12 -0.46 0.28 -0.9 0.48 -1.34 c0.1 -0.22 0.24 -0.42 0.28 -0.66 z M8.08 18.72 l0 0.24 l0 -0.24 z M8.08 19.24 l0 -0.28 l0 0.28 z M8.08 20 l-0.26 0 c0.06 -0.16 0.1 -0.34 0.18 -0.48 c0.04 -0.1 0.08 -0.18 0.08 -0.28 l0 0.76 z M14.3 5.699999999999999 l0.26 0 c-0.14 0.18 -0.26 0.38 -0.4 0.56 l0 -0.38 z M16.26 12.08 l-1.06 0.96 c-0.38 0.36 -0.74 0.74 -1.02 1.18 l-0.02 0.02 l0 -0.42 l0.04 -0.04 c0.22 -0.26 0.44 -0.52 0.68 -0.76 c0.3 -0.32 0.64 -0.64 0.96 -0.96 c0.58 -0.52 0.92 -1.18 1.06 -1.94 c0.12 -0.62 0.16 -1.24 0.16 -1.88 c0.02 -0.88 0.24 -1.7 0.7 -2.46 c0.02 -0.02 0.02 -0.06 0.04 -0.08 l0.28 0 c-0.52 0.8 -0.74 1.68 -0.72 2.62 c0.02 0.74 -0.02 1.46 -0.2 2.2 c-0.14 0.6 -0.44 1.14 -0.9 1.56 z M16.56 10.14 c-0.16 0.68 -0.48 1.28 -0.98 1.8 c-0.48 0.48 -0.94 1 -1.42 1.5 l0 -0.38 l1.22 -1.34 c0.26 -0.3 0.46 -0.62 0.62 -0.96 c0.28 -0.64 0.4 -1.3 0.46 -1.98 c0.04 -0.4 0.04 -0.8 0.12 -1.2 c0.1 -0.68 0.36 -1.3 0.72 -1.88 l0.26 0 c-0.48 0.76 -0.74 1.58 -0.78 2.48 c-0.02 0.66 -0.06 1.32 -0.22 1.96 z M15 11.74 c-0.26 0.28 -0.52 0.58 -0.78 0.88 l-0.06 0.04 l0 -0.4 c0.28 -0.34 0.6 -0.66 0.84 -1.04 c0.54 -0.74 0.78 -1.58 0.88 -2.48 c0.04 -0.5 0.08 -1 0.22 -1.48 c0.16 -0.56 0.4 -1.08 0.7 -1.56 l0.24 0 c-0.02 0.02 -0.02 0.06 -0.04 0.08 c-0.48 0.8 -0.76 1.66 -0.8 2.6 c-0.02 0.52 -0.1 1.04 -0.24 1.54 c-0.18 0.68 -0.5 1.28 -0.96 1.82 z M15.44 9.48 c-0.2 0.88 -0.64 1.66 -1.24 2.34 c-0.02 0 -0.02 0.02 -0.04 0.02 l0 -0.42 l0.1 -0.12 c0.62 -0.84 0.96 -1.76 1.06 -2.78 c0.1 -1 0.42 -1.92 0.96 -2.76 c0 -0.02 0.02 -0.04 0.02 -0.06 l0.26 0 c-0.52 0.82 -0.84 1.72 -0.94 2.7 c-0.04 0.36 -0.1 0.72 -0.18 1.08 z M15.04 8.48 c-0.1 0.84 -0.36 1.64 -0.82 2.36 l-0.06 0.08 l0 -0.58 l0.06 -0.08 c0.24 -0.52 0.4 -1.04 0.5 -1.6 s0.2 -1.12 0.42 -1.66 c0.18 -0.46 0.42 -0.88 0.68 -1.3 l0.24 0 l-0.16 0.28 c-0.46 0.76 -0.74 1.6 -0.86 2.5 z M14.44 8.6 c-0.06 0.3 -0.16 0.6 -0.24 0.92 c0 0.02 -0.02 0.06 -0.04 0.08 l0 -1.14 c0 -0.04 0.02 -0.06 0.02 -0.1 c0.2 -0.94 0.56 -1.8 1.1 -2.6 l0.04 -0.06 l0.26 0 c-0.62 0.88 -0.96 1.84 -1.14 2.9 z M14.82 5.699999999999999 l0.26 0 c-0.36 0.52 -0.68 1.06 -0.9 1.66 c0 0.02 -0.02 0.02 -0.02 0.04 l0 -0.66 z M15.120000000000001 13.8 c-0.44 0.4 -0.72 0.9 -0.88 1.48 c-0.02 0.12 -0.06 0.26 -0.08 0.4 l0 -0.92 l0.04 -0.06 c0.16 -0.26 0.28 -0.52 0.46 -0.74 c0.26 -0.3 0.54 -0.56 0.84 -0.84 c0.38 -0.34 0.8 -0.68 1.18 -1.02 c0.4 -0.36 0.68 -0.82 0.78 -1.34 c0.08 -0.3 0.14 -0.62 0.16 -0.92 c0.02 -0.54 0.04 -1.06 0.04 -1.6 c-0.02 -0.88 0.16 -1.72 0.66 -2.48 c0 -0.02 0.02 -0.04 0.02 -0.06 l0.28 0 c0 0.02 -0.02 0.04 -0.02 0.06 c-0.38 0.58 -0.6 1.22 -0.64 1.9 l0 1.04 l-0.3 0 l0 2.72 c-0.02 0.02 -0.02 0.02 -0.04 0.02 c-0.16 0.34 -0.4 0.62 -0.68 0.84 c-0.34 0.28 -0.68 0.54 -1 0.8 c-0.28 0.24 -0.56 0.46 -0.82 0.72 z M18.92 5.699999999999999 l0.22 0 l0.06 0 c-0.02 0.02 -0.02 0.04 -0.04 0.06 c-0.62 0.9 -0.66 1.9 -0.56 2.94 l-0.32 0 c-0.1 -1.08 0 -2.1 0.64 -3 z M19.2 5.699999999999999 l0.3 0 l0 0 l-0.3 0 l0 0 z M19.88 5.699999999999999 l0.18 0.02 c-0.08 0 -0.16 0 -0.22 -0.02 l0.04 0 z M19.3 6.82 c-0.14 0.6 -0.12 1.22 -0.06 1.82 c0 0.02 0.02 0.06 0.04 0.08 l-0.44 -0.02 l0.06 0 c0 -0.24 -0.02 -0.44 -0.02 -0.66 c-0.04 -0.82 0.1 -1.6 0.6 -2.28 c0 -0.02 0.02 -0.04 0.02 -0.06 l0.34 0 l-0.06 0.06 c-0.22 0.32 -0.38 0.68 -0.48 1.06 z M20.060000000000002 5.720000000000001 l0.06 0 l-0.06 0 z M20.12 5.720000000000001 l0 0 z M19.92 8.76 l0.04 0.06 c0.02 0 0.02 0.02 0.04 0.02 c-0.14 -0.04 -0.28 -0.08 -0.46 -0.1 l0.04 0 c-0.12 -1.06 -0.12 -2.1 0.54 -3.02 l0.36 0.02 c-0.04 0.02 -0.06 0.02 -0.1 0.06 c-0.2 0.36 -0.36 0.72 -0.44 1.1 c-0.12 0.62 -0.08 1.24 -0.02 1.86 z M20.48 5.74 l0.04 0 l0.04 0 l-0.08 0 z M20.560000000000002 5.74 l0.12 0.02 c-0.06 0 -0.08 0 -0.12 -0.02 z M20.66 5.76 l0.08 0 l-0.08 0 z M20.259999999999998 8.94 l0.06 0.02 c-0.16 -1.1 -0.2 -2.18 0.42 -3.2 l0.34 0.06 c-0.04 0 -0.06 0.02 -0.08 0.08 c-0.24 0.46 -0.36 0.94 -0.4 1.46 c-0.06 0.64 0.04 1.28 0.14 1.92 c0 0.04 0.02 0.08 0.04 0.12 c0.12 0.2 0.2 0.4 0.2 0.64 c-0.06 -0.5 -0.26 -0.88 -0.72 -1.1 z M21.18 5.84 l-0.1 -0.02 l0.06 0 c0.02 0 0.02 0 0.04 0.02 z M21.32 5.859999999999999 l-0.14 -0.02 c0.04 0 0.1 0 0.14 0.02 z M21.34 5.859999999999999 l-0.02 0 l0.02 0 l0 0 z M21.32 5.92 c0.02 -0.02 0.02 -0.04 0.02 -0.06 l0.36 0.1 c-0.06 0 -0.06 0.04 -0.12 0.22 c-0.24 0.74 -0.28 1.48 -0.16 2.24 c0.08 0.58 0.2 1.16 0.34 1.74 c0.18 0.8 0.08 1.56 -0.24 2.32 c-0.26 0.66 -0.68 1.18 -1.3 1.54 c-0.3 0.18 -0.6 0.34 -0.92 0.5 c-0.42 0.2 -0.84 0.38 -1.26 0.56 c-0.06 0.02 -0.1 0.06 -0.16 0.08 l0.02 0.02 l-0.24 0 l0 0.12 c-0.52 0.32 -0.88 0.72 -1.02 1.3 c-0.1 0.44 -0.08 0.88 0.02 1.34 c0.12 0.66 0.36 1.28 0.6 1.92 l0.06 0.14 l-0.22 0 c0 -0.04 -0.02 -0.06 -0.02 -0.1 c-0.08 -0.2 -0.18 -0.4 -0.26 -0.6 c-0.26 -0.68 -0.48 -1.36 -0.52 -2.1 c-0.06 -0.72 0.14 -1.36 0.7 -1.84 c0.2 -0.16 0.42 -0.32 0.66 -0.44 c0.38 -0.2 0.78 -0.36 1.16 -0.54 c0.42 -0.18 0.82 -0.38 1.2 -0.62 c0.4 -0.28 0.78 -0.62 1 -1.08 c0.26 -0.58 0.42 -1.16 0.38 -1.8 c-0.02 -0.28 -0.08 -0.56 -0.12 -0.84 c-0.1 -0.58 -0.22 -1.16 -0.28 -1.74 c-0.1 -0.82 -0.02 -1.62 0.32 -2.38 z M21.92 6.039999999999999 l-0.22 -0.08 c0.04 0 0.1 0.02 0.2 0.06 l0.02 0.02 l0 0 z M20.8 14.46 c-0.42 0.28 -0.9 0.5 -1.36 0.72 c-0.04 0 -0.08 0.02 -0.12 0.04 l-0.02 -0.04 l-0.72 0 c0.02 0 0.04 -0.02 0.06 -0.02 c0.44 -0.2 0.88 -0.38 1.32 -0.6 c0.54 -0.26 1.02 -0.58 1.4 -1.06 s0.64 -1.04 0.84 -1.64 c0.16 -0.52 0.2 -1.04 0.06 -1.56 c-0.12 -0.52 -0.26 -1.04 -0.36 -1.56 c-0.2 -0.9 -0.2 -1.78 0.06 -2.64 l0 -0.04 c-0.02 0 -0.02 0 -0.04 -0.02 c0.22 0.08 0.42 0.18 0.62 0.3 l-0.22 -0.12 c-0.02 0.02 -0.02 0.02 -0.02 0.04 s-0.02 0.04 -0.02 0.08 c-0.12 0.6 -0.12 1.2 -0.02 1.82 s0.26 1.24 0.46 1.86 c0.18 0.64 0.14 1.28 -0.08 1.92 c-0.22 0.56 -0.52 1.1 -0.86 1.58 c-0.26 0.38 -0.6 0.68 -0.98 0.94 z M22.54 6.34 l0.08 0.04 c-0.02 -0.02 -0.06 -0.02 -0.08 -0.04 z M21.2 18.2 c-0.2 0.2 -0.2 0.2 -0.06 0.46 l0.02 0.08 l-0.44 -0.86 c0.02 0 0.04 -0.02 0.04 -0.02 l1.08 -0.9 c0.5 -0.42 0.94 -0.9 1.34 -1.42 c0.02 -0.02 0.04 -0.08 0.02 -0.1 l-0.16 -0.28 c-0.02 0.02 -0.02 0.04 -0.04 0.06 c-0.54 0.68 -1.18 1.24 -1.9 1.74 c-0.2 0.12 -0.38 0.26 -0.56 0.4 c-0.02 0.02 -0.04 0.08 -0.04 0.1 l-1.14 -2.14 c0.04 0.06 0.08 0.12 0.12 0.2 c0.56 -0.24 1.12 -0.48 1.58 -0.84 c0.26 -0.2 0.52 -0.42 0.74 -0.66 c0.52 -0.6 0.96 -1.28 1.26 -2.04 c0.14 -0.28 0.22 -0.6 0.26 -0.92 c0.06 -0.5 -0.04 -0.98 -0.18 -1.44 c-0.12 -0.42 -0.24 -0.84 -0.34 -1.28 c-0.18 -0.62 -0.24 -1.24 -0.16 -1.88 c0 -0.02 0 -0.06 -0.02 -0.08 c0.14 0.1 0.3 0.2 0.44 0.32 l-0.02 0 l0 0.12 c0 0.36 0.06 0.74 0.18 1.08 c0.12 0.48 0.26 0.94 0.4 1.4 c0.34 1.12 0.24 2.2 -0.36 3.22 c-0.3 0.52 -0.64 1 -1 1.48 c-0.4 0.5 -0.86 0.92 -1.42 1.24 c-0.36 0.2 -0.72 0.36 -1.08 0.56 c-0.02 0.02 -0.06 0.04 -0.1 0.06 l0.18 0.34 c0.24 -0.14 0.48 -0.26 0.72 -0.38 c0.68 -0.36 1.3 -0.82 1.8 -1.42 c0.04 -0.06 0.12 -0.12 0.1 -0.18 l0.24 0.34 c-0.02 0 -0.02 0 -0.02 -0.02 c-0.02 0.04 -0.04 0.06 -0.06 0.08 c-0.2 0.2 -0.38 0.42 -0.6 0.62 c-0.44 0.44 -0.98 0.74 -1.52 1.06 c-0.16 0.08 -0.3 0.18 -0.46 0.26 c0.06 0.14 0.14 0.28 0.2 0.4 c0.02 0 0.04 -0.02 0.06 -0.02 c0.26 -0.18 0.54 -0.36 0.82 -0.52 c0.58 -0.38 1.1 -0.82 1.56 -1.34 c0.12 -0.16 0.16 -0.22 0.14 -0.32 l0.14 0.24 l0.5 0.92 l-0.06 -0.12 c-0.02 0.04 -0.06 0.08 -0.08 0.12 c-0.36 0.46 -0.74 0.92 -1.14 1.34 c-0.32 0.3 -0.66 0.62 -0.98 0.94 z M23.060000000000002 6.699999999999999 l0.02 -0.02 l0.12 0.14 c-0.04 -0.04 -0.08 -0.08 -0.14 -0.12 z M23.560000000000002 7.220000000000001 c-0.02 -0.02 -0.02 -0.06 -0.04 -0.08 l-0.3 -0.32 c0.84 0.78 1.34 1.92 1.34 3.38 c0 1.42 -0.64 2.98 -1.88 3.76 l0.12 -0.12 c0.26 -0.36 0.54 -0.74 0.78 -1.14 c0.5 -0.76 0.78 -1.6 0.7 -2.54 c-0.04 -0.72 -0.14 -1.44 -0.44 -2.1 c-0.12 -0.28 -0.2 -0.56 -0.28 -0.84 z M19.54 8.74 l-0.26 -0.02 c0.1 0 0.18 0 0.26 0.02 z M20 8.84 l0.16 0.06 c0.04 0.02 0.06 0.02 0.1 0.04 c-0.1 -0.02 -0.18 -0.06 -0.26 -0.1 z M20.96 10.86 l0.02 -0.8 l0 -0.02 c0.02 0.12 0.02 0.24 0.02 0.38 c0 0.16 -0.02 0.3 -0.04 0.44 z M20.5 11.78 l-0.18 0.1 c0.34 -0.24 0.56 -0.58 0.64 -1.02 l-0.02 0.5 c0 0.1 -0.02 0.18 -0.02 0.26 c-0.08 0.52 -0.24 1 -0.6 1.4 c-0.24 0.26 -0.52 0.48 -0.84 0.66 c-0.5 0.26 -1.02 0.5 -1.52 0.76 c-0.34 0.18 -0.68 0.34 -1 0.56 c-0.44 0.3 -0.74 0.7 -0.88 1.22 c-0.12 0.5 -0.08 1 0.02 1.5 c0.18 0.8 0.48 1.54 0.8 2.28 l-0.22 0 l-0.04 -0.1 c-0.18 -0.48 -0.38 -0.96 -0.56 -1.44 c-0.2 -0.6 -0.34 -1.24 -0.32 -1.88 c0.02 -0.62 0.24 -1.16 0.72 -1.58 c0.22 -0.2 0.46 -0.36 0.72 -0.52 c0.4 -0.22 0.8 -0.4 1.22 -0.6 s0.82 -0.44 1.18 -0.72 c0.3 -0.24 0.54 -0.5 0.7 -0.84 c0.08 -0.18 0.12 -0.36 0.2 -0.54 z M20 12.04 c0.1 -0.06 0.22 -0.1 0.32 -0.16 c-0.1 0.06 -0.2 0.12 -0.32 0.16 z M17.66 12.02 l0 0.16 l0.48 0 c-0.12 0.02 -0.24 0.06 -0.32 0.2 c-0.04 0.04 -0.1 0.08 -0.14 0.1 c-0.38 0.28 -0.76 0.52 -1.12 0.8 c-0.34 0.24 -0.68 0.5 -1.02 0.76 c-0.32 0.28 -0.56 0.62 -0.72 1.02 c-0.26 0.6 -0.28 1.26 -0.18 1.9 c0.18 1.08 0.6 2.06 1.06 3.04 l-0.2 0 l-0.56 -1.28 c-0.3 -0.78 -0.54 -1.56 -0.58 -2.38 c-0.02 -0.52 0.06 -1.02 0.28 -1.48 c0.24 -0.52 0.6 -0.92 1.04 -1.26 c0.36 -0.28 0.72 -0.52 1.08 -0.8 l0.84 -0.68 c0.02 -0.02 0.06 -0.06 0.06 -0.1 z M19.4 12.280000000000001 l0.04 -0.1 l-0.26 0 c0.3 0 0.58 -0.04 0.82 -0.14 l-0.06 0.08 c-0.12 0.3 -0.3 0.56 -0.56 0.74 c-0.28 0.22 -0.58 0.44 -0.88 0.62 c-0.34 0.2 -0.7 0.36 -1.06 0.54 c-0.38 0.22 -0.78 0.42 -1.12 0.72 c-0.4 0.36 -0.66 0.78 -0.76 1.28 c-0.08 0.42 -0.06 0.84 0 1.26 c0.14 0.76 0.4 1.46 0.68 2.16 l0.24 0.56 l-0.2 0 l-0.04 -0.1 c-0.16 -0.38 -0.32 -0.76 -0.46 -1.14 c-0.26 -0.66 -0.46 -1.34 -0.5 -2.06 c-0.06 -0.72 0.12 -1.38 0.62 -1.92 c0.22 -0.24 0.46 -0.44 0.74 -0.62 c0.32 -0.18 0.66 -0.36 0.98 -0.56 c0.4 -0.24 0.8 -0.48 1.18 -0.72 c0.24 -0.16 0.44 -0.36 0.6 -0.6 z M18.5 12.18 l-0.36 0 c0.12 -0.02 0.24 0 0.36 0 z M15.120000000000001 17.2 c0.12 0.68 0.34 1.3 0.6 1.92 c0.1 0.3 0.24 0.58 0.36 0.88 l-0.2 0 l-0.04 -0.1 c-0.16 -0.4 -0.34 -0.82 -0.5 -1.24 c-0.28 -0.72 -0.5 -1.46 -0.52 -2.22 c-0.02 -0.58 0.08 -1.1 0.38 -1.58 c0.24 -0.4 0.56 -0.72 0.94 -0.98 c0.36 -0.26 0.72 -0.46 1.08 -0.7 c0.34 -0.24 0.68 -0.48 1.02 -0.74 c0.1 -0.06 0.16 -0.16 0.26 -0.26 l0.54 0 c-0.04 0 -0.06 0.02 -0.1 0.06 c-0.18 0.16 -0.36 0.38 -0.56 0.52 c-0.4 0.28 -0.82 0.52 -1.22 0.78 c-0.4 0.24 -0.78 0.46 -1.14 0.74 c-0.48 0.4 -0.8 0.9 -0.92 1.52 c-0.1 0.46 -0.08 0.94 0.02 1.4 z M22.68 13.96 l-0.04 0.02 l-0.02 0.02 c0.02 -0.02 0.04 -0.04 0.06 -0.04 z M22.62 14 l-0.1 0.04 c0.04 -0.02 0.06 -0.02 0.1 -0.04 z M22.42 14.1 l0.1 -0.06 c-0.04 0.02 -0.06 0.04 -0.1 0.06 z M22.42 14.1 l0 0.04 l-0.02 -0.02 s0.02 0 0.02 -0.02 z M22.48 14.219999999999999 l-0.06 -0.08 l0 0 c0.04 0.02 0.04 0.04 0.06 0.08 z M22.7 14.559999999999999 c0.06 0.1 0.1 0.16 0.12 0.2 l-0.12 -0.2 l0 0 z M19.36 15.32 l-0.04 -0.1 z M17.62 19.5 c0 0.02 0.02 0.04 0.02 0.08 l0.02 0 l0 0.42 l-0.1 0 l-0.12 -0.32 c-0.26 -0.66 -0.48 -1.32 -0.54 -2.04 c-0.08 -0.74 0.12 -1.4 0.72 -1.88 c0.02 -0.02 0.04 -0.04 0.04 -0.06 l0 3.4 c0 -0.18 -0.02 -0.38 -0.04 -0.56 c-0.04 -0.38 -0.1 -0.78 -0.02 -1.18 c0.1 -0.34 0.04 -0.7 0.04 -1.06 c-0.14 0.14 -0.22 0.32 -0.3 0.5 c-0.14 0.4 -0.16 0.8 -0.1 1.2 c0.06 0.52 0.2 1 0.38 1.5 z M23.560000000000002 16.08 l-0.08 -0.16 z M23.54 16.08 l0.58 1.02 c-0.02 0.04 -0.02 0.06 -0.04 0.1 l-1.38 2.7 c-0.02 0.04 -0.02 0.06 -0.04 0.1 l-0.62 0 c0.16 -0.3 0.32 -0.6 0.5 -0.88 c0.44 -0.76 0.9 -1.52 1.36 -2.26 c0.02 -0.04 0.04 -0.08 0.02 -0.12 c-0.04 -0.1 -0.1 -0.18 -0.16 -0.28 c-0.02 0.02 -0.04 0.04 -0.04 0.06 c-0.48 0.74 -0.98 1.46 -1.52 2.18 c-0.2 0.24 -0.36 0.52 -0.54 0.8 c-0.04 0.04 -0.04 0.1 0 0.14 l0.18 0.36 l-0.56 -1.04 c0.3 -0.34 0.6 -0.68 0.88 -1.02 c0.5 -0.56 0.96 -1.14 1.38 -1.74 c0.02 -0.04 0.04 -0.08 0 -0.12 z M14.32 17.36 c0.2 0.86 0.54 1.68 0.9 2.48 c0.02 0.06 0.06 0.1 0.08 0.16 l-0.2 0 c-0.36 -0.74 -0.66 -1.48 -0.9 -2.26 l-0.04 -0.1 l0 -1.08 c0.04 0.26 0.08 0.54 0.16 0.8 z M24.28 17.38 l-0.14 -0.28 c0.06 0.1 0.1 0.2 0.14 0.28 z M24.3 17.42 l-0.02 -0.04 l0.26 0.46 l-0.04 -0.06 c-0.02 0.06 -0.02 0.08 -0.04 0.12 c-0.24 0.68 -0.48 1.36 -0.74 2.04 l0 0.06 l-0.5 0 l0.02 -0.08 c0.34 -0.8 0.7 -1.6 1.04 -2.4 c0 -0.04 0.02 -0.08 0.02 -0.1 z M20.54 17.52 l-0.04 -0.06 z M20.560000000000002 17.56 l-0.02 -0.04 z M20.560000000000002 17.56 l0.16 0.32 z M24.68 18.08 l-0.14 -0.24 c0.06 0.08 0.1 0.16 0.14 0.24 z M24.68 18.1 l-0.02 -0.02 l0.26 0.44 c-0.1 0.26 -0.18 0.54 -0.24 0.8 c-0.06 0.24 -0.1 0.46 -0.14 0.68 l-0.4 0 l0.54 -1.82 c0 -0.02 0.02 -0.06 0 -0.08 z M14.86 19.96 c0.02 0 0.02 0.02 0.02 0.04 l-0.2 0 c-0.02 -0.02 -0.02 -0.06 -0.04 -0.08 l-0.48 -1.08 l0 -0.54 c0 0.02 0.02 0.02 0.02 0.04 c0.24 0.54 0.46 1.08 0.68 1.62 z M25.1 18.84 l-0.18 -0.32 l0.18 0.32 l0 0 z M21.18 18.74 l0.1 0.22 z M25.1 18.92 l0 -0.08 l0.32 0.6 l-0.08 -0.14 c-0.02 0.04 -0.04 0.06 -0.04 0.1 c-0.04 0.2 -0.06 0.4 -0.1 0.6 l-0.32 0 c0.08 -0.36 0.14 -0.72 0.22 -1.08 z M17.66 19.58 l0 -0.48 l0.02 0.46 c0 0.02 -0.02 0.02 -0.02 0.02 z M14.16 20 l0 -0.64 l0.3 0.64 l-0.3 0 z M25.52 19.64 l-0.1 -0.2 c0.04 0.06 0.08 0.12 0.1 0.2 z M25.740000000000002 20 l-0.22 0 c0 -0.06 0 -0.12 0.02 -0.18 s0.02 -0.14 0 -0.18 z M32.86 16.84 l-0.08 -0.02 c0.04 0.06 0.04 0.08 0.06 0.12 c0.42 1.1 0.86 2.18 1.2 3.3 c-0.7 0 -1.38 -0.08 -2 -0.22 c-0.02 -0.06 -0.02 -0.1 -0.04 -0.12 c-0.08 -0.18 -0.14 -0.38 -0.22 -0.56 c-0.4 -0.88 -0.8 -1.76 -1.18 -2.64 c-0.46 -1.04 -0.82 -2.12 -1 -3.26 c-0.22 -1.22 -0.02 -2.38 0.66 -3.42 c0.26 -0.4 0.54 -0.8 0.84 -1.16 c0.52 -0.6 1.06 -1.16 1.58 -1.74 c0.44 -0.46 0.82 -0.94 1.12 -1.5 l0.06 -0.16 l0.2 0 l0.14 0 c-0.26 0.56 -0.62 1.04 -1.02 1.5 c-0.4 0.44 -0.82 0.86 -1.22 1.3 c-0.52 0.54 -1.02 1.12 -1.4 1.76 c-0.52 0.86 -0.78 1.76 -0.7 2.76 c0.04 0.42 0.14 0.84 0.22 1.26 c0.24 1.02 0.64 2 1.06 2.96 l1.32 3.04 c0 0.02 0.02 0.06 0.04 0.06 l0.38 0.06 c-0.02 -0.06 -0.04 -0.1 -0.04 -0.14 l-0.48 -1.16 c-0.52 -1.26 -1.06 -2.5 -1.58 -3.76 c0.22 0.44 0.54 0.82 0.92 1.12 l-0.06 -0.04 c0.04 0.1 0.1 0.2 0.14 0.32 c0.5 1.22 1.06 2.4 1.48 3.66 c0.02 0.02 0.04 0.04 0.06 0.04 c0.12 0.02 0.22 0.02 0.34 0.02 c-0.02 -0.1 -0.04 -0.18 -0.08 -0.26 l-1.32 -3.34 c0 -0.02 0 -0.02 -0.02 -0.04 c0.2 0.1 0.4 0.18 0.62 0.26 z M33.86 5.460000000000001 c-0.1 0 -0.18 0 -0.28 0.02 l0.06 -0.02 l0.22 0 z M34.480000000000004 5.48 c-0.1 -0.02 -0.18 -0.02 -0.28 -0.02 c0.1 0 0.18 0 0.28 0.02 z M33.58 6.880000000000001 c0.36 -0.38 0.66 -0.82 0.88 -1.3 c0.02 -0.04 0.02 -0.08 0.02 -0.1 l0.4 0.02 c-0.04 0 -0.08 0.04 -0.1 0.1 c-0.14 0.26 -0.28 0.54 -0.44 0.78 c-0.36 0.52 -0.8 0.96 -1.24 1.4 c-0.48 0.52 -1 1.02 -1.44 1.58 c-0.02 0.04 -0.04 0.08 -0.06 0.1 l0.06 -0.04 c-0.9 0.68 -1.36 1.74 -1.46 2.84 c0.02 -0.7 0.2 -1.38 0.56 -2.02 c0.32 -0.6 0.76 -1.14 1.22 -1.66 c0.54 -0.56 1.08 -1.12 1.6 -1.7 z M31.6 19.84 c0 0.02 0.02 0.06 0.04 0.06 l0.34 0.1 c-3.38 -0.82 -5.42 -3.62 -5.42 -7.18 c0 -3.88 2.68 -6.92 6.62 -7.32 c-0.08 0.02 -0.16 0.02 -0.22 0.04 c-0.08 0 -0.12 0.04 -0.16 0.1 c-0.12 0.2 -0.24 0.44 -0.38 0.62 c-0.42 0.52 -0.84 1.02 -1.28 1.5 c-0.6 0.68 -1.18 1.36 -1.68 2.14 c-0.34 0.54 -0.62 1.1 -0.76 1.72 c-0.18 0.74 -0.14 1.46 -0.06 2.2 c0.14 1.02 0.42 2.02 0.82 2.96 c0.4 0.92 0.82 1.84 1.24 2.74 c0.02 0.04 0.04 0.06 0.06 0.06 c0.12 0.06 0.26 0.12 0.38 0.16 c0.02 0 0.02 0 0.02 -0.02 c-0.06 -0.12 -0.1 -0.26 -0.16 -0.4 c-0.34 -0.7 -0.66 -1.4 -0.98 -2.12 c-0.56 -1.24 -0.98 -2.52 -1.12 -3.88 c-0.1 -1.1 0.08 -2.14 0.64 -3.1 c0.3 -0.5 0.62 -0.96 1 -1.4 c0.48 -0.56 0.98 -1.12 1.48 -1.68 c0.42 -0.48 0.82 -0.96 1.12 -1.52 c0.02 -0.04 0.04 -0.06 0.06 -0.12 l0.38 -0.02 c-0.04 0.02 -0.08 0.06 -0.1 0.12 c-0.18 0.28 -0.32 0.56 -0.54 0.8 c-0.46 0.58 -0.96 1.12 -1.46 1.66 c-0.56 0.62 -1.1 1.24 -1.54 1.96 c-0.42 0.7 -0.7 1.44 -0.74 2.26 c-0.04 0.68 0.06 1.32 0.2 1.96 c0.2 1.02 0.58 2 1 2.94 c0.38 0.88 0.8 1.78 1.2 2.66 z M34.88 5.5 l0.06 0 l0.02 0 l-0.08 0 z M33.2 5.5 c-0.02 0 -0.02 0 0 0 z M34.96 5.5 l0.12 0.02 c-0.04 0 -0.08 0 -0.12 -0.02 z M35.08 5.52 l0.06 0 l-0.06 0 z M33.4 7.880000000000001 c0.4 -0.44 0.82 -0.86 1.18 -1.34 c0.22 -0.3 0.4 -0.64 0.56 -1.02 l0.34 0.06 c-0.04 0 -0.06 0.02 -0.06 0.06 c-0.16 0.42 -0.38 0.78 -0.64 1.12 c-0.4 0.52 -0.84 0.96 -1.3 1.42 c-0.2 0.22 -0.42 0.42 -0.62 0.64 l0.02 0.02 c-0.22 0.06 -0.44 0.14 -0.62 0.22 l0.04 -0.04 c0.38 -0.38 0.74 -0.76 1.1 -1.14 z M35.54 5.58 l0.24 0.06 l-0.3 -0.06 l0.06 0 z M30.02 19.22 c0.06 0.02 0.12 0.08 0.2 0.1 l-0.06 -0.16 c-0.26 -0.58 -0.52 -1.14 -0.78 -1.72 c-0.54 -1.2 -0.94 -2.44 -1.06 -3.76 c-0.04 -0.56 -0.04 -1.1 0.02 -1.66 c0.1 -0.72 0.38 -1.36 0.76 -1.98 c0.5 -0.8 1.08 -1.5 1.7 -2.2 l1.26 -1.52 c0.16 -0.22 0.28 -0.46 0.44 -0.68 c-0.02 0 -0.02 -0.02 -0.04 -0.02 c-0.08 0 -0.16 0.02 -0.24 0.04 c-0.06 0.02 -0.1 0.04 -0.14 0.1 c-0.16 0.26 -0.3 0.52 -0.48 0.74 c-0.32 0.42 -0.64 0.8 -0.96 1.18 c-0.62 0.72 -1.2 1.46 -1.72 2.24 c-0.62 0.96 -0.92 2 -0.9 3.12 c0 1.18 0.22 2.3 0.6 3.38 c0.3 0.82 0.66 1.58 1 2.38 c0.1 0.18 0.2 0.34 0.4 0.42 z M34.68 7.34 c0.44 -0.46 0.82 -0.98 1.06 -1.58 c0 -0.04 0.02 -0.08 0.02 -0.12 l0.34 0.06 l0 0.06 c-0.2 0.5 -0.46 0.96 -0.82 1.36 l-1.2 1.26 c-0.1 0.1 -0.2 0.18 -0.28 0.26 l0.02 0.02 l0.36 0 c0.02 0 0.06 -0.02 0.08 -0.04 l1.28 -1.32 c0.38 -0.4 0.68 -0.86 0.88 -1.38 c0 -0.04 0.02 -0.08 0.04 -0.12 l-0.06 -0.02 c0.14 0.04 0.28 0.08 0.4 0.12 l0 0.04 c-0.2 0.62 -0.58 1.12 -1.02 1.58 l-1.08 1.08 l-0.08 0.08 c-0.14 -0.02 -0.28 -0.02 -0.4 -0.02 c-0.32 0 -0.62 0.02 -0.9 0.08 l0.06 -0.06 c0.44 -0.44 0.88 -0.88 1.3 -1.34 z M36.120000000000005 5.699999999999999 l0.28 0.08 c-0.08 -0.02 -0.18 -0.04 -0.28 -0.08 z M29.060000000000002 18.54 l0.12 0.1 c0 -0.04 -0.02 -0.08 -0.02 -0.12 c-0.22 -0.5 -0.44 -1 -0.64 -1.5 c-0.52 -1.28 -0.8 -2.6 -0.78 -4 c0.02 -1.14 0.32 -2.18 0.96 -3.14 c0.46 -0.7 0.96 -1.36 1.5 -2 l1.16 -1.46 c0.14 -0.2 0.24 -0.4 0.36 -0.6 l-0.02 -0.02 c-0.06 0.02 -0.1 0.02 -0.16 0.04 l-0.18 0.06 c-0.02 0.02 -0.04 0.04 -0.06 0.08 c-0.28 0.54 -0.68 1.04 -1.06 1.52 c-0.56 0.68 -1.12 1.4 -1.62 2.14 c-0.38 0.56 -0.72 1.14 -0.9 1.8 c-0.3 1.2 -0.3 2.42 -0.08 3.64 c0.16 0.92 0.5 1.8 0.84 2.68 c0.12 0.32 0.3 0.58 0.58 0.78 z M37.1 6 l0.04 0.02 c-0.1 -0.04 -0.22 -0.08 -0.32 -0.12 c0.1 0.04 0.18 0.08 0.28 0.1 z M37.120000000000005 6.119999999999999 c0 -0.04 0.04 -0.06 0 -0.1 l0.38 0.16 c-0.04 0.1 -0.06 0.2 -0.1 0.3 c-0.22 0.56 -0.6 0.98 -1.02 1.38 c-0.32 0.28 -0.64 0.56 -0.94 0.86 c-0.04 0.02 -0.06 0.04 -0.1 0.08 c0.12 0.04 0.22 0.08 0.32 0.1 c0.02 0 0.06 -0.02 0.08 -0.04 c0.12 -0.1 0.22 -0.18 0.32 -0.28 c0.32 -0.3 0.66 -0.58 0.98 -0.88 c0.38 -0.34 0.62 -0.78 0.76 -1.28 c0.02 -0.04 0.02 -0.06 0 -0.1 l0.36 0.2 c-0.02 0.02 -0.02 0.04 -0.02 0.06 c-0.14 0.58 -0.46 1.06 -0.9 1.46 l-0.86 0.72 c-0.1 0.08 -0.2 0.18 -0.32 0.28 c0.12 0.06 0.2 0.1 0.3 0.14 c0.04 0.02 0.08 0.02 0.12 -0.02 c0.16 -0.14 0.32 -0.28 0.5 -0.42 c0.24 -0.22 0.5 -0.42 0.74 -0.66 c0.38 -0.36 0.6 -0.8 0.72 -1.3 l0 -0.08 l0.3 0.22 c-0.02 0.04 -0.02 0.08 -0.02 0.12 c-0.14 0.52 -0.4 1 -0.8 1.36 c-0.22 0.22 -0.46 0.4 -0.68 0.6 l-0.46 0.4 c0.12 0.06 0.22 0.12 0.32 0.18 c0.02 0.02 0.06 0 0.08 -0.02 c0.28 -0.24 0.56 -0.48 0.84 -0.74 c0.5 -0.44 0.82 -0.98 0.98 -1.62 c0 -0.04 0 -0.08 -0.02 -0.1 l0.28 0.22 c-0.02 0.04 -0.02 0.08 -0.02 0.1 c-0.16 0.6 -0.44 1.14 -0.88 1.58 c-0.26 0.26 -0.5 0.5 -0.76 0.74 c-0.04 0.04 -0.08 0.06 -0.14 0.1 c0.12 0.1 0.22 0.18 0.34 0.28 c-0.76 -0.66 -1.84 -1.22 -2.9 -1.4 c0.04 0 0.1 -0.02 0.14 -0.06 l0.66 -0.62 c0.24 -0.26 0.5 -0.5 0.74 -0.74 c0.32 -0.34 0.54 -0.74 0.68 -1.18 z M27.86 17.22 l0.14 0.2 c0.02 0 0.02 0 0.02 -0.02 c-0.02 -0.08 -0.06 -0.16 -0.08 -0.24 c-0.54 -1.44 -0.82 -2.92 -0.66 -4.48 c0.1 -1 0.38 -1.94 0.92 -2.78 c0.54 -0.82 1.12 -1.58 1.72 -2.34 c0.34 -0.44 0.66 -0.88 0.92 -1.36 c0.02 -0.04 0.04 -0.06 0.06 -0.12 c-0.12 0.06 -0.22 0.1 -0.32 0.14 c-0.06 0.04 -0.12 0.1 -0.16 0.16 c-0.16 0.24 -0.3 0.5 -0.46 0.74 c-0.46 0.64 -0.94 1.26 -1.38 1.9 c-0.4 0.54 -0.76 1.1 -1.04 1.72 c-0.36 0.8 -0.48 1.68 -0.54 2.56 c-0.04 0.82 0.04 1.64 0.22 2.44 c0.08 0.28 0.14 0.58 0.26 0.84 c0.1 0.22 0.26 0.44 0.38 0.64 z M37.74 6.279999999999999 c0.04 0.02 0.06 0.04 0.06 0.04 l-0.3 -0.14 l0 0 c0.1 0.04 0.16 0.08 0.24 0.1 z M38.44 6.68 l0 0.02 c-0.08 -0.06 -0.18 -0.12 -0.28 -0.18 c0.1 0.06 0.2 0.1 0.28 0.16 z M26.76 14.059999999999999 c-0.02 -0.56 0.04 -1.1 0.12 -1.64 c0.12 -0.88 0.38 -1.72 0.86 -2.46 c0.4 -0.62 0.82 -1.24 1.24 -1.84 l0.96 -1.46 c0.02 -0.02 0.04 -0.06 0.06 -0.08 c-0.12 0.04 -0.22 0.1 -0.32 0.16 c-0.06 0.06 -0.14 0.12 -0.18 0.18 l-0.54 0.84 c-0.38 0.58 -0.78 1.16 -1.18 1.76 c-0.56 0.86 -0.94 1.78 -1.1 2.8 c-0.02 0.24 -0.06 0.46 -0.1 0.7 l0 0.24 c0 0.02 0.02 0.06 0.02 0.08 l0.06 0.68 l0.12 0.66 c0 -0.2 -0.02 -0.42 -0.02 -0.62 z M38.980000000000004 7.1 c-0.06 -0.06 -0.14 -0.12 -0.22 -0.2 c0.08 0.06 0.16 0.12 0.22 0.2 z M37.8 10.1 l1.62 -2.62 l-0.16 -0.16 l0 0 l0.18 0.16 c-0.54 0.88 -1.08 1.76 -1.64 2.62 z M28.28 8.02 l-0.94 1.56 c-0.32 0.5 -0.48 1.06 -0.58 1.66 c0.22 -0.7 0.58 -1.36 0.98 -1.98 l1.14 -1.8 c0.04 -0.04 0.06 -0.08 0.08 -0.12 c-0.26 0.2 -0.5 0.42 -0.68 0.68 z M34.9 8.72 c-0.08 0 -0.18 -0.02 -0.28 -0.04 l0.28 0.04 l0 0 z M32.88 8.84 c0.14 -0.04 0.3 -0.08 0.46 -0.1 l-0.04 0 c-0.14 0.04 -0.28 0.06 -0.42 0.1 z M32.26 9.06 l-0.04 0.02 c0.02 0 0.02 -0.02 0.04 -0.02 z M32.22 9.08 l0 0 z M32.22 9.08 c-0.18 0.14 -0.36 0.24 -0.56 0.34 c0.16 -0.12 0.36 -0.24 0.56 -0.34 z M30.58 14.66 l0.2 0.44 c-0.4 -0.7 -0.6 -1.54 -0.6 -2.36 c0 -0.16 0 -0.32 0.02 -0.48 l0 0.04 c-0.02 0.82 0.06 1.62 0.38 2.36 z M38.019999999999996 15.280000000000001 l0.08 0.12 c0.4 1.14 0.48 2.3 0.46 3.5 l-0.34 0.22 c0.04 -0.04 0.04 -0.12 0.02 -0.2 l0 -0.24 c0 -0.76 -0.04 -1.5 -0.22 -2.22 c-0.08 -0.3 -0.16 -0.6 -0.26 -0.92 c-0.08 0.08 -0.16 0.14 -0.24 0.2 c-0.04 0.04 -0.04 0.08 -0.04 0.14 c0.12 0.38 0.22 0.78 0.3 1.16 c0.14 0.66 0.14 1.34 0.16 2.02 c0 0.08 0.02 0.14 0.02 0.22 l-0.32 0.16 c0.02 -0.02 0.02 -0.06 0.02 -0.1 c-0.04 -0.32 -0.06 -0.66 -0.08 -0.98 c-0.04 -0.76 -0.14 -1.5 -0.38 -2.22 c-0.02 -0.04 -0.02 -0.08 -0.04 -0.12 c-0.1 0.06 -0.16 0.12 -0.24 0.16 c-0.06 0.04 -0.06 0.06 -0.04 0.12 c0.06 0.24 0.14 0.5 0.18 0.74 c0.08 0.6 0.14 1.2 0.22 1.8 c0.02 0.24 0.06 0.48 0.08 0.72 l-0.32 0.14 c0.02 -0.02 0.02 -0.06 0 -0.1 c-0.08 -0.56 -0.14 -1.14 -0.22 -1.72 l-0.26 -1.34 c-0.02 -0.04 -0.02 -0.08 -0.04 -0.12 c-0.1 0.04 -0.18 0.1 -0.28 0.14 c-0.06 0.02 -0.06 0.04 -0.06 0.1 c0.04 0.16 0.1 0.32 0.12 0.48 l0.42 2.5 c0.02 0.04 0.02 0.1 0.04 0.16 l-0.32 0.1 c-0.04 -0.48 -0.58 -3.02 -0.66 -3.14 l-0.1 0.02 c0.88 -0.3 1.7 -0.86 2.34 -1.5 z M38.68 16.2 l0.02 0.06 l-0.58 -0.86 c0.2 0.26 0.38 0.54 0.56 0.8 z M31.7 16.22 l0.52 0.32 l0.02 0.04 c-0.2 -0.1 -0.38 -0.22 -0.54 -0.36 z M38.7 16.259999999999998 l0.46 0.64 l0 1.56 c-0.12 0.08 -0.22 0.16 -0.34 0.24 c0.02 0 0.04 -0.02 0.04 -0.06 c0.02 -0.78 0 -1.56 -0.14 -2.32 z M35.46 16.84 l0.2 -0.06 c-0.06 0.02 -0.12 0.04 -0.2 0.06 z M32.86 16.84 l0.24 0.06 l0.1 0.04 c-0.12 -0.04 -0.22 -0.06 -0.34 -0.1 z M35.46 16.84 l-0.02 0.02 c0.22 1.06 0.46 2.1 0.68 3.14 l-0.32 0.06 c-0.26 -1.04 -0.5 -2.06 -0.76 -3.1 l-0.06 0 c0.16 -0.02 0.32 -0.06 0.48 -0.12 z M39.480000000000004 17.34 l0.02 0.04 l-0.34 -0.48 l0 -0.02 c0.12 0.16 0.22 0.3 0.32 0.46 z M34.120000000000005 18.08 l0.62 2.06 c0.02 0.02 0.06 0.06 0.08 0.06 l0.1 0 c-0.18 0.02 -0.34 0.02 -0.52 0.04 c-0.02 -0.04 -0.02 -0.1 -0.04 -0.14 c-0.34 -1 -0.68 -1.98 -1 -2.98 c-0.04 -0.08 -0.08 -0.16 -0.16 -0.18 c0.18 0.04 0.38 0.06 0.56 0.08 c0 0.04 0.02 0.08 0.02 0.12 c0.12 0.32 0.24 0.62 0.34 0.94 z M34.620000000000005 17.02 l0.36 -0.06 z M34.620000000000005 17.02 c0.3 1.04 0.58 2.08 0.86 3.1 l0.04 0 c-0.12 0.02 -0.26 0.04 -0.4 0.06 c-0.02 -0.06 -0.02 -0.1 -0.04 -0.14 l-0.3 -1.1 c-0.18 -0.6 -0.38 -1.2 -0.56 -1.8 c-0.02 -0.04 -0.04 -0.1 -0.06 -0.1 l0.06 0 c0.14 0 0.28 0 0.4 -0.02 z M34.16 17.04 l-0.38 -0.02 c0.14 0 0.26 0 0.38 0.02 z M39.480000000000004 17.38 l0.34 0.46 l-0.36 0.34 c0 -0.02 0.02 -0.02 0.02 -0.04 c0 -0.24 0.02 -0.48 0.02 -0.7 z M39.16 18.46 c0.1 -0.1 0.2 -0.18 0.3 -0.28 l0 0.04 c-0.1 0.08 -0.18 0.14 -0.3 0.24 z M38.56 18.9 c0.1 -0.06 0.18 -0.12 0.26 -0.18 c-0.08 0.06 -0.16 0.12 -0.26 0.18 z M37.96 19.28 c0.08 -0.06 0.18 -0.1 0.26 -0.16 c-0.02 0.04 -0.08 0.08 -0.14 0.1 c-0.04 0 -0.08 0.04 -0.12 0.06 z M37.36 19.56 c0.1 -0.04 0.18 -0.08 0.28 -0.12 c-0.02 0.02 -0.04 0.04 -0.06 0.04 c-0.08 0.02 -0.14 0.06 -0.22 0.08 z M36.96 19.74 l-0.2 0.06 c0.1 -0.02 0.18 -0.06 0.28 -0.1 c-0.02 0.02 -0.04 0.04 -0.08 0.04 z M36.120000000000005 20 c0.1 -0.04 0.22 -0.06 0.32 -0.08 c-0.1 0.02 -0.2 0.04 -0.32 0.08 z M32.04 20.02 l-0.06 -0.02 c0.02 0 0.04 0.02 0.06 0.02 z M35.8 20.08 c-0.1 0.02 -0.2 0.04 -0.28 0.04 l0.28 -0.06 l0 0.02 z M35.120000000000005 20.18 l-0.2 0.02 c0.06 0 0.14 -0.02 0.2 -0.02 z M34.4 20.24 l-0.34 0 l0.34 0 z M34.06 20.24 l-0.02 0 l0.02 0 z M42.260000000000005 5.699999999999999 l0.28 0 c0.02 0.48 -0.14 0.92 -0.4 1.32 c-0.16 0.24 -0.36 0.48 -0.54 0.72 l0 -0.28 c0.2 -0.24 0.36 -0.52 0.5 -0.8 c0.12 -0.32 0.2 -0.62 0.16 -0.96 z M41.74 5.699999999999999 l0.26 0 c0.04 0.52 -0.12 1 -0.4 1.44 l0 -0.46 c0.14 -0.32 0.18 -0.64 0.14 -0.98 z M43.14 8.32 c-0.62 0.66 -1.14 1.38 -1.46 2.24 c-0.02 0.06 -0.06 0.12 -0.08 0.18 l0 -0.62 l0.04 -0.06 c0.22 -0.46 0.5 -0.92 0.84 -1.3 c0.38 -0.44 0.78 -0.84 1.18 -1.26 c0.24 -0.28 0.48 -0.54 0.68 -0.82 c0.22 -0.3 0.32 -0.62 0.32 -0.98 l0.32 0 c0.02 0.32 -0.08 0.64 -0.26 0.9 s-0.38 0.5 -0.6 0.72 c-0.32 0.36 -0.66 0.66 -0.98 1 z M43.2 7.66 c-0.54 0.54 -1.06 1.1 -1.46 1.76 l-0.14 0.24 l0 -0.4 c0.02 -0.02 0.04 -0.04 0.06 -0.08 c0.14 -0.18 0.26 -0.38 0.4 -0.56 l1.14 -1.26 c0.24 -0.28 0.48 -0.58 0.64 -0.92 c0.12 -0.24 0.18 -0.48 0.18 -0.74 l0.32 0 c0 0.36 -0.12 0.68 -0.32 0.98 c-0.22 0.36 -0.52 0.66 -0.82 0.98 z M43.06 7.18 c-0.3 0.36 -0.62 0.7 -0.92 1.04 c-0.18 0.22 -0.36 0.46 -0.54 0.7 l0 -0.32 l1.16 -1.38 c0.18 -0.22 0.32 -0.48 0.46 -0.72 s0.2 -0.52 0.18 -0.8 l0.32 0 c-0.02 0.58 -0.3 1.06 -0.66 1.48 z M42.88 6.6 c-0.14 0.28 -0.32 0.54 -0.52 0.78 c-0.24 0.32 -0.5 0.62 -0.76 0.92 l0 -0.28 l0.58 -0.7 c0.36 -0.48 0.66 -1 0.64 -1.62 l0.28 0 c0.02 0.32 -0.06 0.62 -0.22 0.9 z M46.42 14.120000000000001 c0 0.02 0.02 0.08 0.04 0.08 l-0.5 0 c-0.3 -1 -0.34 -2 0.1 -2.96 l-0.02 -0.02 l0.5 0 l1.1 -2.04 l-0.06 0.12 c-0.02 0.02 -0.02 0.04 -0.04 0.08 c0.02 -0.02 0.02 0 0.02 -0.02 c0.06 -0.04 0.1 -0.06 0.14 -0.1 c0.46 -0.38 0.9 -0.76 1.3 -1.2 c0.6 -0.68 0.9 -1.44 0.8 -2.36 l0.38 0 l0 0.08 c0.1 0.76 -0.08 1.44 -0.52 2.06 c-0.28 0.4 -0.62 0.74 -0.96 1.06 c-0.44 0.42 -0.92 0.8 -1.32 1.22 c-1.1 1.14 -1.38 2.48 -0.96 4 z M47.980000000000004 15.780000000000001 c0.26 0.54 0.54 1.08 0.82 1.62 c0.44 0.86 0.9 1.7 1.28 2.6 l-0.36 0 c-0.02 -0.04 -0.02 -0.08 -0.04 -0.12 c-0.24 -0.46 -0.46 -0.94 -0.72 -1.4 c-0.44 -0.84 -0.9 -1.66 -1.34 -2.5 c-0.32 -0.6 -0.56 -1.22 -0.72 -1.86 c-0.38 -1.48 -0.06 -2.78 0.98 -3.9 c0.28 -0.3 0.58 -0.56 0.88 -0.84 c0.38 -0.36 0.76 -0.7 1.08 -1.1 c0.44 -0.56 0.74 -1.18 0.74 -1.92 c0.02 -0.22 -0.02 -0.44 -0.02 -0.66 l0.36 0 c0.2 1.24 -0.22 2.26 -1.06 3.14 c-0.32 0.34 -0.66 0.66 -0.98 0.98 c-0.24 0.26 -0.5 0.5 -0.72 0.78 c-0.76 0.94 -1.04 2.04 -0.82 3.24 c0.12 0.68 0.36 1.32 0.64 1.94 z M49.54 17.14 c0.42 0.9 0.84 1.82 1.18 2.74 c0.02 0.04 0.02 0.08 0.04 0.12 l-0.34 0 c-0.08 -0.2 -0.16 -0.42 -0.26 -0.62 c-0.4 -0.88 -0.82 -1.74 -1.24 -2.6 c-0.3 -0.62 -0.6 -1.26 -0.82 -1.94 c-0.18 -0.58 -0.3 -1.16 -0.28 -1.78 c0.02 -0.86 0.3 -1.64 0.84 -2.3 c0.28 -0.36 0.6 -0.7 0.92 -1.04 c0.36 -0.36 0.7 -0.7 1 -1.12 c0.62 -0.84 0.86 -1.76 0.72 -2.8 l0 -0.1 l0.36 0 c0.08 0.42 0.08 0.82 0.02 1.24 c-0.14 0.9 -0.54 1.68 -1.14 2.36 c-0.36 0.42 -0.76 0.84 -1.12 1.26 c-0.56 0.68 -0.94 1.44 -1.02 2.32 c-0.06 0.66 0.04 1.28 0.2 1.92 c0.24 0.8 0.58 1.58 0.94 2.34 z M49.400000000000006 12.54 l0 0.04 l0.2 0.38 l-0.04 -0.06 c0 0.08 -0.02 0.14 -0.02 0.2 c-0.06 0.62 0 1.22 0.14 1.82 c0.16 0.72 0.42 1.4 0.68 2.1 c0.36 0.94 0.7 1.88 1.04 2.82 l0.04 0.16 l-0.34 0 c-0.04 -0.12 -0.06 -0.24 -0.1 -0.34 c-0.4 -0.96 -0.78 -1.92 -1.18 -2.88 c-0.3 -0.74 -0.58 -1.48 -0.76 -2.26 c-0.28 -1.38 -0.04 -2.66 0.84 -3.78 c0.28 -0.38 0.6 -0.74 0.9 -1.1 c0.66 -0.8 1.1 -1.68 1.26 -2.7 c0.06 -0.42 0.06 -0.82 -0.02 -1.24 l0.4 0 l0 0.06 c0.06 0.46 0.06 0.92 -0.02 1.38 l0 0.04 c0.02 -0.04 0.04 -0.08 0.08 -0.12 z M49.5 5.699999999999999 l-0.06 0.1 z M52.82 5.699999999999999 l0.44 0 l-0.52 0.9 l0.12 -0.2 c0.02 -0.02 0.02 -0.06 0.02 -0.1 z M48.42 8.12 c-0.24 0.2 -0.44 0.44 -0.6 0.7 l1.62 -3.02 c-0.02 0.06 -0.02 0.12 -0.02 0.18 c0.02 0.4 -0.06 0.78 -0.24 1.12 c-0.18 0.4 -0.42 0.74 -0.76 1.02 z M43.14 16.42 c0.58 1.06 1.26 2.04 1.92 3.02 c0.02 0 0.02 0.02 0.04 0.02 l0 0.54 c-0.02 -0.04 -0.02 -0.1 -0.06 -0.14 c-0.32 -0.5 -0.64 -1 -0.98 -1.48 c-0.58 -0.9 -1.16 -1.82 -1.62 -2.78 c-0.42 -0.9 -0.74 -1.8 -0.82 -2.78 c0 -0.02 -0.02 -0.02 -0.02 -0.04 l0 -0.84 l0.02 -0.08 c0.08 -0.76 0.32 -1.48 0.72 -2.14 c0.36 -0.62 0.84 -1.16 1.34 -1.64 c0.3 -0.28 0.6 -0.54 0.88 -0.84 c0.18 -0.18 0.32 -0.38 0.48 -0.58 c0.04 -0.06 0.06 -0.14 0.06 -0.2 l0 0.62 c-0.02 0.02 -0.04 0.02 -0.04 0.04 c-0.24 0.22 -0.5 0.44 -0.74 0.68 c-0.38 0.38 -0.78 0.76 -1.14 1.16 c-0.48 0.54 -0.86 1.16 -1.08 1.86 c-0.34 1 -0.32 2.02 -0.06 3.04 c0.24 0.92 0.64 1.76 1.1 2.56 z M52.5 7.0600000000000005 l0.26 -0.46 z M45.06 18.54 c0.02 0.02 0.02 0.02 0.04 0.02 l0 0.58 c-0.02 -0.1 -0.06 -0.2 -0.12 -0.28 c-0.58 -0.86 -1.16 -1.72 -1.68 -2.64 c-0.46 -0.84 -0.84 -1.7 -1.06 -2.64 c-0.3 -1.4 -0.1 -2.7 0.7 -3.9 c0.34 -0.52 0.76 -0.98 1.22 -1.42 c0.28 -0.26 0.58 -0.5 0.86 -0.76 c0.04 -0.02 0.08 -0.06 0.08 -0.1 l0 0.38 c-0.02 0.02 -0.04 0.02 -0.04 0.02 c-0.58 0.5 -1.14 1 -1.6 1.62 c-0.92 1.16 -1.24 2.48 -0.98 3.92 c0.14 0.82 0.44 1.56 0.82 2.28 c0.5 1.04 1.14 1.98 1.76 2.92 z M45.02 8.18 c0.06 -0.06 0.08 -0.1 0.08 -0.16 l0 0.46 c-0.28 0.2 -0.84 0.8 -1.16 1.2 c-0.56 0.76 -0.9 1.6 -0.94 2.54 c-0.04 0.82 0.14 1.62 0.44 2.38 c0.42 1.06 1 2.02 1.62 2.98 l0.04 0.04 l0 0.66 c0 -0.1 -0.02 -0.2 -0.08 -0.28 c-0.1 -0.14 -0.2 -0.28 -0.28 -0.44 c-0.58 -0.88 -1.12 -1.78 -1.52 -2.76 c-0.3 -0.72 -0.5 -1.46 -0.54 -2.26 c-0.04 -1.1 0.32 -2.08 0.98 -2.96 c0.4 -0.54 0.86 -0.98 1.36 -1.4 z M45.1 8.48 l0 0.14 l0 -0.14 z M45.1 8.76 l0 -0.14 l0 0.14 z M45.06 9.32 c-0.54 0.56 -0.96 1.18 -1.2 1.92 c-0.26 0.84 -0.24 1.7 -0.02 2.54 c0.24 0.86 0.62 1.64 1.06 2.42 l0.18 0.32 s0.02 0 0.02 -0.02 l0 0.74 c0 -0.08 -0.02 -0.16 -0.06 -0.22 l-0.54 -0.9 c-0.44 -0.78 -0.82 -1.6 -1.02 -2.46 c-0.24 -0.96 -0.22 -1.92 0.16 -2.84 c0.32 -0.72 0.78 -1.34 1.36 -1.86 c0.06 -0.06 0.1 -0.14 0.1 -0.2 l0 0.52 c-0.02 0.02 -0.04 0.02 -0.04 0.04 z M47.84 8.82 l-0.2 0.36 c0.06 -0.12 0.12 -0.24 0.2 -0.36 z M44.42 12.64 c0.02 0.88 0.3 1.7 0.66 2.48 l0.02 0.02 l0 0.9 c0 -0.08 -0.02 -0.16 -0.06 -0.22 c-0.28 -0.54 -0.54 -1.1 -0.74 -1.7 c-0.2 -0.68 -0.32 -1.38 -0.24 -2.08 c0.1 -0.84 0.46 -1.56 0.98 -2.2 c0.02 -0.02 0.06 -0.06 0.06 -0.1 l0 0.66 l-0.02 0 l-0.04 0.04 c-0.42 0.68 -0.62 1.4 -0.62 2.2 z M45.52 14.14 c0 0.02 0.04 0.06 0.06 0.06 l-0.48 0 l0 0.14 c0 -0.14 -0.02 -0.28 -0.06 -0.4 c-0.04 -0.08 -0.06 -0.18 -0.08 -0.26 c-0.16 -0.76 -0.18 -1.52 0.08 -2.26 c0.04 -0.14 0.06 -0.26 0.06 -0.4 l0 0.2 l0.6 0 c-0.1 0 -0.14 0.02 -0.18 0.12 c-0.36 0.92 -0.3 1.86 0 2.8 z M49.6 12.96 l0.04 0.04 c0.12 0.24 0.26 0.46 0.38 0.7 l0.02 0.04 z M50.08 13.940000000000001 c0 -0.06 -0.02 -0.14 -0.04 -0.2 l0.76 1.38 c-0.02 -0.02 -0.04 -0.04 -0.04 -0.06 c-0.02 0.04 -0.02 0.06 0 0.1 c0.08 0.34 0.14 0.7 0.24 1.04 c0.26 0.92 0.56 1.84 0.82 2.78 c0.12 0.34 0.2 0.68 0.3 1.02 l-0.34 0 c-0.1 -0.3 -0.18 -0.62 -0.28 -0.92 l-0.9 -2.7 c-0.26 -0.8 -0.48 -1.6 -0.52 -2.44 z M42.88 16.92 c0.58 0.94 1.18 1.84 1.76 2.76 c0.08 0.1 0.14 0.22 0.22 0.32 l-0.28 0 l-1.28 -1.94 c-0.64 -1.02 -1.24 -2.06 -1.68 -3.2 l-0.02 -0.02 l0 -0.72 c0 0.02 0.02 0.02 0.02 0.04 c0.3 0.98 0.74 1.9 1.26 2.76 z M46.52 14.2 l-0.06 0 l0.06 0 z M46.52 14.2 l0.02 0 l0.02 0.02 z M46.58 14.3 l-0.04 -0.08 c0.02 0.02 0.04 0.06 0.04 0.08 z M46.6 14.3 l1.7 3.26 c-0.56 -1.08 -1.14 -2.16 -1.7 -3.26 z M45.1 14.54 l0 -0.2 l0 0.2 z M45.1 14.54 l0 0.6 c-0.02 -0.2 0 -0.4 0 -0.6 z M50.900000000000006 15.3 l-0.1 -0.18 c0.04 0.06 0.06 0.12 0.1 0.18 z M50.900000000000006 15.3 l0.34 0.6 z M43.44 18.68 l0.84 1.26 c0 0.02 0.02 0.04 0.02 0.06 l-0.26 0 l-0.24 -0.4 c-0.6 -0.92 -1.2 -1.82 -1.74 -2.78 l-0.46 -0.9 l0 -0.5 l0.02 0.02 c0.5 1.14 1.16 2.2 1.82 3.24 z M51.44 16.3 l-0.22 -0.4 l0.2 0.34 c0 0.02 0.02 0.04 0.02 0.06 z M51.480000000000004 16.4 l-0.04 -0.1 l0.8 1.44 c-0.02 0.04 0 0.08 0 0.12 l0.24 0.92 c0.08 0.4 0.18 0.82 0.26 1.22 l-0.32 0 c-0.04 -0.18 -0.06 -0.34 -0.12 -0.52 c-0.26 -1.02 -0.54 -2.06 -0.82 -3.08 z M41.6 16.38 l0.96 1.7 c0.38 0.62 0.78 1.22 1.16 1.82 l0.06 0.1 l-0.26 0 c-0.02 -0.04 -0.04 -0.1 -0.08 -0.14 c-0.62 -1 -1.26 -1.98 -1.82 -3 c0 -0.02 -0.02 -0.02 -0.02 -0.04 l0 -0.44 z M41.6 17.240000000000002 l0.04 0.04 l1.62 2.66 c0 0.02 0.02 0.04 0.02 0.06 l-0.24 0 c-0.46 -0.78 -0.94 -1.54 -1.4 -2.32 l-0.04 -0.04 l0 -0.4 z M49.56 20 l-1.26 -2.44 z M52.28 17.8 l-0.04 -0.06 c0.02 0.02 0.02 0.04 0.04 0.06 z M52.44 18.08 l-0.16 -0.24 l0 -0.04 z M41.6 18.38 l0 -0.36 l0.04 0.04 c0.38 0.64 0.78 1.3 1.16 1.94 l-0.24 0 c-0.06 -0.12 -0.14 -0.24 -0.2 -0.34 c-0.26 -0.44 -0.5 -0.86 -0.76 -1.28 z M52.7 18.58 l-0.28 -0.5 l0.04 0.06 c0.08 0.14 0.16 0.3 0.24 0.44 z M52.7 18.58 l0.78 1.42 l-0.42 0 l-0.06 -0.28 c-0.06 -0.4 -0.14 -0.78 -0.3 -1.14 z M41.6 19.12 l0 -0.36 c0.02 0.02 0.04 0.04 0.04 0.06 l0.7 1.18 l-0.22 0 l-0.06 -0.1 c-0.16 -0.26 -0.3 -0.52 -0.46 -0.78 z M45.1 19.26 l0 -0.12 l0 0.12 z M41.6 20 l0 -0.5 c0.1 0.16 0.18 0.34 0.28 0.5 l-0.28 0 z M55.24 5.699999999999999 l0.26 0 c-0.14 0.18 -0.26 0.38 -0.4 0.56 l0 -0.38 z M57.2 12.08 l-1.06 0.96 c-0.38 0.36 -0.74 0.74 -1.02 1.18 l-0.02 0.02 l0 -0.42 l0.04 -0.04 c0.22 -0.26 0.44 -0.52 0.68 -0.76 c0.3 -0.32 0.64 -0.64 0.96 -0.96 c0.58 -0.52 0.92 -1.18 1.06 -1.94 c0.12 -0.62 0.16 -1.24 0.16 -1.88 c0.02 -0.88 0.24 -1.7 0.7 -2.46 c0.02 -0.02 0.02 -0.06 0.04 -0.08 l0.28 0 c-0.52 0.8 -0.74 1.68 -0.72 2.62 c0.02 0.74 -0.02 1.46 -0.2 2.2 c-0.14 0.6 -0.44 1.14 -0.9 1.56 z M57.5 10.14 c-0.16 0.68 -0.48 1.28 -0.98 1.8 c-0.48 0.48 -0.94 1 -1.42 1.5 l0 -0.38 l1.22 -1.34 c0.26 -0.3 0.46 -0.62 0.62 -0.96 c0.28 -0.64 0.4 -1.3 0.46 -1.98 c0.04 -0.4 0.04 -0.8 0.12 -1.2 c0.1 -0.68 0.36 -1.3 0.72 -1.88 l0.26 0 c-0.48 0.76 -0.74 1.58 -0.78 2.48 c-0.02 0.66 -0.06 1.32 -0.22 1.96 z M55.94 11.74 c-0.26 0.28 -0.52 0.58 -0.78 0.88 l-0.06 0.04 l0 -0.4 c0.28 -0.34 0.6 -0.66 0.84 -1.04 c0.54 -0.74 0.78 -1.58 0.88 -2.48 c0.04 -0.5 0.08 -1 0.22 -1.48 c0.16 -0.56 0.4 -1.08 0.7 -1.56 l0.24 0 c-0.02 0.02 -0.02 0.06 -0.04 0.08 c-0.48 0.8 -0.76 1.66 -0.8 2.6 c-0.02 0.52 -0.1 1.04 -0.24 1.54 c-0.18 0.68 -0.5 1.28 -0.96 1.82 z M56.38 9.48 c-0.2 0.88 -0.64 1.66 -1.24 2.34 c-0.02 0 -0.02 0.02 -0.04 0.02 l0 -0.42 l0.1 -0.12 c0.62 -0.84 0.96 -1.76 1.06 -2.78 c0.1 -1 0.42 -1.92 0.96 -2.76 c0 -0.02 0.02 -0.04 0.02 -0.06 l0.26 0 c-0.52 0.82 -0.84 1.72 -0.94 2.7 c-0.04 0.36 -0.1 0.72 -0.18 1.08 z M55.980000000000004 8.48 c-0.1 0.84 -0.36 1.64 -0.82 2.36 l-0.06 0.08 l0 -0.58 l0.06 -0.08 c0.24 -0.52 0.4 -1.04 0.5 -1.6 s0.2 -1.12 0.42 -1.66 c0.18 -0.46 0.42 -0.88 0.68 -1.3 l0.24 0 l-0.16 0.28 c-0.46 0.76 -0.74 1.6 -0.86 2.5 z M55.38 8.6 c-0.06 0.3 -0.16 0.6 -0.24 0.92 c0 0.02 -0.02 0.06 -0.04 0.08 l0 -1.14 c0 -0.04 0.02 -0.06 0.02 -0.1 c0.2 -0.94 0.56 -1.8 1.1 -2.6 l0.04 -0.06 l0.26 0 c-0.62 0.88 -0.96 1.84 -1.14 2.9 z M55.760000000000005 5.699999999999999 l0.26 0 c-0.36 0.52 -0.68 1.06 -0.9 1.66 c0 0.02 -0.02 0.02 -0.02 0.04 l0 -0.66 z M56.06 13.8 c-0.44 0.4 -0.72 0.9 -0.88 1.48 c-0.02 0.12 -0.06 0.26 -0.08 0.4 l0 -0.92 l0.04 -0.06 c0.16 -0.26 0.28 -0.52 0.46 -0.74 c0.26 -0.3 0.54 -0.56 0.84 -0.84 c0.38 -0.34 0.8 -0.68 1.18 -1.02 c0.4 -0.36 0.68 -0.82 0.78 -1.34 c0.08 -0.3 0.14 -0.62 0.16 -0.92 c0.02 -0.54 0.04 -1.06 0.04 -1.6 c-0.02 -0.88 0.16 -1.72 0.66 -2.48 c0 -0.02 0.02 -0.04 0.02 -0.06 l0.28 0 c0 0.02 -0.02 0.04 -0.02 0.06 c-0.38 0.58 -0.6 1.22 -0.64 1.9 l0 1.04 l-0.3 0 l0 2.72 c-0.02 0.02 -0.02 0.02 -0.04 0.02 c-0.16 0.34 -0.4 0.62 -0.68 0.84 c-0.34 0.28 -0.68 0.54 -1 0.8 c-0.28 0.24 -0.56 0.46 -0.82 0.72 z M59.86 5.699999999999999 l0.22 0 l0.06 0 c-0.02 0.02 -0.02 0.04 -0.04 0.06 c-0.62 0.9 -0.66 1.9 -0.56 2.94 l-0.32 0 c-0.1 -1.08 0 -2.1 0.64 -3 z M60.14 5.699999999999999 l0.3 0 l0 0 l-0.3 0 l0 0 z M60.82 5.699999999999999 l0.18 0.02 c-0.08 0 -0.16 0 -0.22 -0.02 l0.04 0 z M60.24 6.82 c-0.14 0.6 -0.12 1.22 -0.06 1.82 c0 0.02 0.02 0.06 0.04 0.08 l-0.44 -0.02 l0.06 0 c0 -0.24 -0.02 -0.44 -0.02 -0.66 c-0.04 -0.82 0.1 -1.6 0.6 -2.28 c0 -0.02 0.02 -0.04 0.02 -0.06 l0.34 0 l-0.06 0.06 c-0.22 0.32 -0.38 0.68 -0.48 1.06 z M61 5.720000000000001 l0.06 0 l-0.06 0 z M61.06 5.720000000000001 l0 0 z M60.86 8.76 l0.04 0.06 c0.02 0 0.02 0.02 0.04 0.02 c-0.14 -0.04 -0.28 -0.08 -0.46 -0.1 l0.04 0 c-0.12 -1.06 -0.12 -2.1 0.54 -3.02 l0.36 0.02 c-0.04 0.02 -0.06 0.02 -0.1 0.06 c-0.2 0.36 -0.36 0.72 -0.44 1.1 c-0.12 0.62 -0.08 1.24 -0.02 1.86 z M61.42 5.74 l0.04 0 l0.04 0 l-0.08 0 z M61.5 5.74 l0.12 0.02 c-0.06 0 -0.08 0 -0.12 -0.02 z M61.6 5.76 l0.08 0 l-0.08 0 z M61.2 8.94 l0.06 0.02 c-0.16 -1.1 -0.2 -2.18 0.42 -3.2 l0.34 0.06 c-0.04 0 -0.06 0.02 -0.08 0.08 c-0.24 0.46 -0.36 0.94 -0.4 1.46 c-0.06 0.64 0.04 1.28 0.14 1.92 c0 0.04 0.02 0.08 0.04 0.12 c0.12 0.2 0.2 0.4 0.2 0.64 c-0.06 -0.5 -0.26 -0.88 -0.72 -1.1 z M62.120000000000005 5.84 l-0.1 -0.02 l0.06 0 c0.02 0 0.02 0 0.04 0.02 z M62.260000000000005 5.859999999999999 l-0.14 -0.02 c0.04 0 0.1 0 0.14 0.02 z M62.28 5.859999999999999 l-0.02 0 l0.02 0 l0 0 z M62.260000000000005 5.92 c0.02 -0.02 0.02 -0.04 0.02 -0.06 l0.36 0.1 c-0.06 0 -0.06 0.04 -0.12 0.22 c-0.24 0.74 -0.28 1.48 -0.16 2.24 c0.08 0.58 0.2 1.16 0.34 1.74 c0.18 0.8 0.08 1.56 -0.24 2.32 c-0.26 0.66 -0.68 1.18 -1.3 1.54 c-0.3 0.18 -0.6 0.34 -0.92 0.5 c-0.42 0.2 -0.84 0.38 -1.26 0.56 c-0.06 0.02 -0.1 0.06 -0.16 0.08 l0.02 0.02 l-0.24 0 l0 0.12 c-0.52 0.32 -0.88 0.72 -1.02 1.3 c-0.1 0.44 -0.08 0.88 0.02 1.34 c0.12 0.66 0.36 1.28 0.6 1.92 l0.06 0.14 l-0.22 0 c0 -0.04 -0.02 -0.06 -0.02 -0.1 c-0.08 -0.2 -0.18 -0.4 -0.26 -0.6 c-0.26 -0.68 -0.48 -1.36 -0.52 -2.1 c-0.06 -0.72 0.14 -1.36 0.7 -1.84 c0.2 -0.16 0.42 -0.32 0.66 -0.44 c0.38 -0.2 0.78 -0.36 1.16 -0.54 c0.42 -0.18 0.82 -0.38 1.2 -0.62 c0.4 -0.28 0.78 -0.62 1 -1.08 c0.26 -0.58 0.42 -1.16 0.38 -1.8 c-0.02 -0.28 -0.08 -0.56 -0.12 -0.84 c-0.1 -0.58 -0.22 -1.16 -0.28 -1.74 c-0.1 -0.82 -0.02 -1.62 0.32 -2.38 z M62.86 6.039999999999999 l-0.22 -0.08 c0.04 0 0.1 0.02 0.2 0.06 l0.02 0.02 l0 0 z M61.74 14.46 c-0.42 0.28 -0.9 0.5 -1.36 0.72 c-0.04 0 -0.08 0.02 -0.12 0.04 l-0.02 -0.04 l-0.72 0 c0.02 0 0.04 -0.02 0.06 -0.02 c0.44 -0.2 0.88 -0.38 1.32 -0.6 c0.54 -0.26 1.02 -0.58 1.4 -1.06 s0.64 -1.04 0.84 -1.64 c0.16 -0.52 0.2 -1.04 0.06 -1.56 c-0.12 -0.52 -0.26 -1.04 -0.36 -1.56 c-0.2 -0.9 -0.2 -1.78 0.06 -2.64 l0 -0.04 c-0.02 0 -0.02 0 -0.04 -0.02 c0.22 0.08 0.42 0.18 0.62 0.3 l-0.22 -0.12 c-0.02 0.02 -0.02 0.02 -0.02 0.04 s-0.02 0.04 -0.02 0.08 c-0.12 0.6 -0.12 1.2 -0.02 1.82 s0.26 1.24 0.46 1.86 c0.18 0.64 0.14 1.28 -0.08 1.92 c-0.22 0.56 -0.52 1.1 -0.86 1.58 c-0.26 0.38 -0.6 0.68 -0.98 0.94 z M63.480000000000004 6.34 l0.08 0.04 c-0.02 -0.02 -0.06 -0.02 -0.08 -0.04 z M62.14 18.2 c-0.2 0.2 -0.2 0.2 -0.06 0.46 l0.02 0.08 l-0.44 -0.86 c0.02 0 0.04 -0.02 0.04 -0.02 l1.08 -0.9 c0.5 -0.42 0.94 -0.9 1.34 -1.42 c0.02 -0.02 0.04 -0.08 0.02 -0.1 l-0.16 -0.28 c-0.02 0.02 -0.02 0.04 -0.04 0.06 c-0.54 0.68 -1.18 1.24 -1.9 1.74 c-0.2 0.12 -0.38 0.26 -0.56 0.4 c-0.02 0.02 -0.04 0.08 -0.04 0.1 l-1.14 -2.14 c0.04 0.06 0.08 0.12 0.12 0.2 c0.56 -0.24 1.12 -0.48 1.58 -0.84 c0.26 -0.2 0.52 -0.42 0.74 -0.66 c0.52 -0.6 0.96 -1.28 1.26 -2.04 c0.14 -0.28 0.22 -0.6 0.26 -0.92 c0.06 -0.5 -0.04 -0.98 -0.18 -1.44 c-0.12 -0.42 -0.24 -0.84 -0.34 -1.28 c-0.18 -0.62 -0.24 -1.24 -0.16 -1.88 c0 -0.02 0 -0.06 -0.02 -0.08 c0.14 0.1 0.3 0.2 0.44 0.32 l-0.02 0 l0 0.12 c0 0.36 0.06 0.74 0.18 1.08 c0.12 0.48 0.26 0.94 0.4 1.4 c0.34 1.12 0.24 2.2 -0.36 3.22 c-0.3 0.52 -0.64 1 -1 1.48 c-0.4 0.5 -0.86 0.92 -1.42 1.24 c-0.36 0.2 -0.72 0.36 -1.08 0.56 c-0.02 0.02 -0.06 0.04 -0.1 0.06 l0.18 0.34 c0.24 -0.14 0.48 -0.26 0.72 -0.38 c0.68 -0.36 1.3 -0.82 1.8 -1.42 c0.04 -0.06 0.12 -0.12 0.1 -0.18 l0.24 0.34 c-0.02 0 -0.02 0 -0.02 -0.02 c-0.02 0.04 -0.04 0.06 -0.06 0.08 c-0.2 0.2 -0.38 0.42 -0.6 0.62 c-0.44 0.44 -0.98 0.74 -1.52 1.06 c-0.16 0.08 -0.3 0.18 -0.46 0.26 c0.06 0.14 0.14 0.28 0.2 0.4 c0.02 0 0.04 -0.02 0.06 -0.02 c0.26 -0.18 0.54 -0.36 0.82 -0.52 c0.58 -0.38 1.1 -0.82 1.56 -1.34 c0.12 -0.16 0.16 -0.22 0.14 -0.32 l0.14 0.24 l0.5 0.92 l-0.06 -0.12 c-0.02 0.04 -0.06 0.08 -0.08 0.12 c-0.36 0.46 -0.74 0.92 -1.14 1.34 c-0.32 0.3 -0.66 0.62 -0.98 0.94 z M64 6.699999999999999 l0.02 -0.02 l0.12 0.14 c-0.04 -0.04 -0.08 -0.08 -0.14 -0.12 z M64.5 7.220000000000001 c-0.02 -0.02 -0.02 -0.06 -0.04 -0.08 l-0.3 -0.32 c0.84 0.78 1.34 1.92 1.34 3.38 c0 1.42 -0.64 2.98 -1.88 3.76 l0.12 -0.12 c0.26 -0.36 0.54 -0.74 0.78 -1.14 c0.5 -0.76 0.78 -1.6 0.7 -2.54 c-0.04 -0.72 -0.14 -1.44 -0.44 -2.1 c-0.12 -0.28 -0.2 -0.56 -0.28 -0.84 z M60.480000000000004 8.74 l-0.26 -0.02 c0.1 0 0.18 0 0.26 0.02 z M60.94 8.84 l0.16 0.06 c0.04 0.02 0.06 0.02 0.1 0.04 c-0.1 -0.02 -0.18 -0.06 -0.26 -0.1 z M61.900000000000006 10.86 l0.02 -0.8 l0 -0.02 c0.02 0.12 0.02 0.24 0.02 0.38 c0 0.16 -0.02 0.3 -0.04 0.44 z M61.44 11.78 l-0.18 0.1 c0.34 -0.24 0.56 -0.58 0.64 -1.02 l-0.02 0.5 c0 0.1 -0.02 0.18 -0.02 0.26 c-0.08 0.52 -0.24 1 -0.6 1.4 c-0.24 0.26 -0.52 0.48 -0.84 0.66 c-0.5 0.26 -1.02 0.5 -1.52 0.76 c-0.34 0.18 -0.68 0.34 -1 0.56 c-0.44 0.3 -0.74 0.7 -0.88 1.22 c-0.12 0.5 -0.08 1 0.02 1.5 c0.18 0.8 0.48 1.54 0.8 2.28 l-0.22 0 l-0.04 -0.1 c-0.18 -0.48 -0.38 -0.96 -0.56 -1.44 c-0.2 -0.6 -0.34 -1.24 -0.32 -1.88 c0.02 -0.62 0.24 -1.16 0.72 -1.58 c0.22 -0.2 0.46 -0.36 0.72 -0.52 c0.4 -0.22 0.8 -0.4 1.22 -0.6 s0.82 -0.44 1.18 -0.72 c0.3 -0.24 0.54 -0.5 0.7 -0.84 c0.08 -0.18 0.12 -0.36 0.2 -0.54 z M60.94 12.04 c0.1 -0.06 0.22 -0.1 0.32 -0.16 c-0.1 0.06 -0.2 0.12 -0.32 0.16 z M58.6 12.02 l0 0.16 l0.48 0 c-0.12 0.02 -0.24 0.06 -0.32 0.2 c-0.04 0.04 -0.1 0.08 -0.14 0.1 c-0.38 0.28 -0.76 0.52 -1.12 0.8 c-0.34 0.24 -0.68 0.5 -1.02 0.76 c-0.32 0.28 -0.56 0.62 -0.72 1.02 c-0.26 0.6 -0.28 1.26 -0.18 1.9 c0.18 1.08 0.6 2.06 1.06 3.04 l-0.2 0 l-0.56 -1.28 c-0.3 -0.78 -0.54 -1.56 -0.58 -2.38 c-0.02 -0.52 0.06 -1.02 0.28 -1.48 c0.24 -0.52 0.6 -0.92 1.04 -1.26 c0.36 -0.28 0.72 -0.52 1.08 -0.8 l0.84 -0.68 c0.02 -0.02 0.06 -0.06 0.06 -0.1 z M60.34 12.280000000000001 l0.04 -0.1 l-0.26 0 c0.3 0 0.58 -0.04 0.82 -0.14 l-0.06 0.08 c-0.12 0.3 -0.3 0.56 -0.56 0.74 c-0.28 0.22 -0.58 0.44 -0.88 0.62 c-0.34 0.2 -0.7 0.36 -1.06 0.54 c-0.38 0.22 -0.78 0.42 -1.12 0.72 c-0.4 0.36 -0.66 0.78 -0.76 1.28 c-0.08 0.42 -0.06 0.84 0 1.26 c0.14 0.76 0.4 1.46 0.68 2.16 l0.24 0.56 l-0.2 0 l-0.04 -0.1 c-0.16 -0.38 -0.32 -0.76 -0.46 -1.14 c-0.26 -0.66 -0.46 -1.34 -0.5 -2.06 c-0.06 -0.72 0.12 -1.38 0.62 -1.92 c0.22 -0.24 0.46 -0.44 0.74 -0.62 c0.32 -0.18 0.66 -0.36 0.98 -0.56 c0.4 -0.24 0.8 -0.48 1.18 -0.72 c0.24 -0.16 0.44 -0.36 0.6 -0.6 z M59.44 12.18 l-0.36 0 c0.12 -0.02 0.24 0 0.36 0 z M56.06 17.2 c0.12 0.68 0.34 1.3 0.6 1.92 c0.1 0.3 0.24 0.58 0.36 0.88 l-0.2 0 l-0.04 -0.1 c-0.16 -0.4 -0.34 -0.82 -0.5 -1.24 c-0.28 -0.72 -0.5 -1.46 -0.52 -2.22 c-0.02 -0.58 0.08 -1.1 0.38 -1.58 c0.24 -0.4 0.56 -0.72 0.94 -0.98 c0.36 -0.26 0.72 -0.46 1.08 -0.7 c0.34 -0.24 0.68 -0.48 1.02 -0.74 c0.1 -0.06 0.16 -0.16 0.26 -0.26 l0.54 0 c-0.04 0 -0.06 0.02 -0.1 0.06 c-0.18 0.16 -0.36 0.38 -0.56 0.52 c-0.4 0.28 -0.82 0.52 -1.22 0.78 c-0.4 0.24 -0.78 0.46 -1.14 0.74 c-0.48 0.4 -0.8 0.9 -0.92 1.52 c-0.1 0.46 -0.08 0.94 0.02 1.4 z M63.620000000000005 13.96 l-0.04 0.02 l-0.02 0.02 c0.02 -0.02 0.04 -0.04 0.06 -0.04 z M63.56 14 l-0.1 0.04 c0.04 -0.02 0.06 -0.02 0.1 -0.04 z M63.36 14.1 l0.1 -0.06 c-0.04 0.02 -0.06 0.04 -0.1 0.06 z M63.36 14.1 l0 0.04 l-0.02 -0.02 s0.02 0 0.02 -0.02 z M63.42 14.219999999999999 l-0.06 -0.08 l0 0 c0.04 0.02 0.04 0.04 0.06 0.08 z M63.64 14.559999999999999 c0.06 0.1 0.1 0.16 0.12 0.2 l-0.12 -0.2 l0 0 z M60.300000000000004 15.32 l-0.04 -0.1 z M58.56 19.5 c0 0.02 0.02 0.04 0.02 0.08 l0.02 0 l0 0.42 l-0.1 0 l-0.12 -0.32 c-0.26 -0.66 -0.48 -1.32 -0.54 -2.04 c-0.08 -0.74 0.12 -1.4 0.72 -1.88 c0.02 -0.02 0.04 -0.04 0.04 -0.06 l0 3.4 c0 -0.18 -0.02 -0.38 -0.04 -0.56 c-0.04 -0.38 -0.1 -0.78 -0.02 -1.18 c0.1 -0.34 0.04 -0.7 0.04 -1.06 c-0.14 0.14 -0.22 0.32 -0.3 0.5 c-0.14 0.4 -0.16 0.8 -0.1 1.2 c0.06 0.52 0.2 1 0.38 1.5 z M64.5 16.08 l-0.08 -0.16 z M64.48 16.08 l0.58 1.02 c-0.02 0.04 -0.02 0.06 -0.04 0.1 l-1.38 2.7 c-0.02 0.04 -0.02 0.06 -0.04 0.1 l-0.62 0 c0.16 -0.3 0.32 -0.6 0.5 -0.88 c0.44 -0.76 0.9 -1.52 1.36 -2.26 c0.02 -0.04 0.04 -0.08 0.02 -0.12 c-0.04 -0.1 -0.1 -0.18 -0.16 -0.28 c-0.02 0.02 -0.04 0.04 -0.04 0.06 c-0.48 0.74 -0.98 1.46 -1.52 2.18 c-0.2 0.24 -0.36 0.52 -0.54 0.8 c-0.04 0.04 -0.04 0.1 0 0.14 l0.18 0.36 l-0.56 -1.04 c0.3 -0.34 0.6 -0.68 0.88 -1.02 c0.5 -0.56 0.96 -1.14 1.38 -1.74 c0.02 -0.04 0.04 -0.08 0 -0.12 z M55.26 17.36 c0.2 0.86 0.54 1.68 0.9 2.48 c0.02 0.06 0.06 0.1 0.08 0.16 l-0.2 0 c-0.36 -0.74 -0.66 -1.48 -0.9 -2.26 l-0.04 -0.1 l0 -1.08 c0.04 0.26 0.08 0.54 0.16 0.8 z M65.22 17.38 l-0.14 -0.28 c0.06 0.1 0.1 0.2 0.14 0.28 z M65.24000000000001 17.42 l-0.02 -0.04 l0.26 0.46 l-0.04 -0.06 c-0.02 0.06 -0.02 0.08 -0.04 0.12 c-0.24 0.68 -0.48 1.36 -0.74 2.04 l0 0.06 l-0.5 0 l0.02 -0.08 c0.34 -0.8 0.7 -1.6 1.04 -2.4 c0 -0.04 0.02 -0.08 0.02 -0.1 z M61.480000000000004 17.52 l-0.04 -0.06 z M61.5 17.56 l-0.02 -0.04 z M61.5 17.56 l0.16 0.32 z M65.62 18.08 l-0.14 -0.24 c0.06 0.08 0.1 0.16 0.14 0.24 z M65.62 18.1 l-0.02 -0.02 l0.26 0.44 c-0.1 0.26 -0.18 0.54 -0.24 0.8 c-0.06 0.24 -0.1 0.46 -0.14 0.68 l-0.4 0 l0.54 -1.82 c0 -0.02 0.02 -0.06 0 -0.08 z M55.800000000000004 19.96 c0.02 0 0.02 0.02 0.02 0.04 l-0.2 0 c-0.02 -0.02 -0.02 -0.06 -0.04 -0.08 l-0.48 -1.08 l0 -0.54 c0 0.02 0.02 0.02 0.02 0.04 c0.24 0.54 0.46 1.08 0.68 1.62 z M66.04 18.84 l-0.18 -0.32 l0.18 0.32 l0 0 z M62.120000000000005 18.74 l0.1 0.22 z M66.04 18.92 l0 -0.08 l0.32 0.6 l-0.08 -0.14 c-0.02 0.04 -0.04 0.06 -0.04 0.1 c-0.04 0.2 -0.06 0.4 -0.1 0.6 l-0.32 0 c0.08 -0.36 0.14 -0.72 0.22 -1.08 z M58.6 19.58 l0 -0.48 l0.02 0.46 c0 0.02 -0.02 0.02 -0.02 0.02 z M55.1 20 l0 -0.64 l0.3 0.64 l-0.3 0 z M66.46000000000001 19.64 l-0.1 -0.2 c0.04 0.06 0.08 0.12 0.1 0.2 z M66.68 20 l-0.22 0 c0 -0.06 0 -0.12 0.02 -0.18 s0.02 -0.14 0 -0.18 z"></path></g></svg>