<?xml version="1.0" encoding="UTF-8" standalone="no"?>
<svg
   xmlns:dc="http://purl.org/dc/elements/1.1/"
   xmlns:cc="http://creativecommons.org/ns#"
   xmlns:rdf="http://www.w3.org/1999/02/22-rdf-syntax-ns#"
   xmlns:svg="http://www.w3.org/2000/svg"
   xmlns="http://www.w3.org/2000/svg"
   version="1.1"
   id="bbcbfbdb"
   class="css-1y5supu"
   preserveAspectRatio="xMidYMid meet"
   viewBox="0 0 265 80">
  <metadata
     id="metadata19">
    <rdf:RDF>
      <cc:Work
         rdf:about="">
        <dc:format>image/svg+xml</dc:format>
        <dc:type
           rdf:resource="http://purl.org/dc/dcmitype/StillImage" />
        <dc:title></dc:title>
      </cc:Work>
    </rdf:RDF>
  </metadata>
  <defs
     id="SvgjsDefs1028" />
  <g
     fill="#000000"
     featurekey="root"
     id="SvgjsG1029" />
  <g
     transform="matrix(1.0294117647058822,0,0,1.0294117647058822,-1.3235294117647047,-6.470588235294116)"
     fill="#ffffff"
     featurekey="symbol1"
     id="SvgjsG1030">
    <g
       id="g6">
      <polygon
         id="polygon4"
         points="61,23.8 53.1,16 23.2,45.9 11,36 11,73.8  " />
    </g>
    <g
       id="g10">
      <polygon
         id="polygon8"
         points="30.2,65.4 38.1,73.3 68,43.4 79,54.5 79,16.7  " />
    </g>
  </g>
  <g
     transform="matrix(4.386513414535005,0,0,4.386513414535005,97.02647111853075,-35.79678367975516)"
     fill="#ffffff"
     featurekey="text1"
     id="SvgjsG1031">
    <path
       id="path29"
       d="m 5.8303,23.50864 c 0.050847,0.10169 -0.050681,0.18678 -0.16933,0.25458 -0.3222,0.16949 -0.89847,0.32169 -1.5425,0.32169 -1.7627,0 -2.1864,-1.0169 -2.1864,-3.1186 v -4.1186 h -1.0508 c -0.11864,0 -0.20339,-0.0678 -0.20339,-0.20339 v -0.25424 c 0,-0.10169 0.016949,-0.16949 0.11864,-0.23729 1.0339,-0.49136 1.5085,-1 1.9322,-3.0169 C 2.762618,13.0342 2.796517,12.9664 2.88126,12.9664 h 0.20339 c 0.11864,0 0.13559,0.0678 0.13559,0.18644 v 2.4576 h 2.1017 c 0.11864,0 0.22017,0.08475 0.22017,0.22034 v 0.81356 c 0,0.11864 -0.10153,0.20339 -0.22017,0.20339 h -1.7798 c -0.13559,0 -0.25424,-0.01695 -0.33898,-0.05085 v 4 c 0,1.322 0.084746,2.0847 1.1017,2.0847 0.50847,0 0.76271,-0.08458 1.0339,-0.16933 0.16966,-0.05085 0.30525,-0.01712 0.33915,0.11848 z" />
    <path
       id="path27"
       d="m 13.135424,16.1019 c 0.15254,0.10169 0.18661,0.16933 0.10186,0.28797 l -0.49153,0.71186 c -0.05085,0.10169 -0.13559,0.11864 -0.25424,0.0678 -0.47458,-0.25424 -0.84746,-0.42373 -1.4746,-0.42373 -0.61017,0 -1.4914003,0.25424 -2.1527003,1.3051 v 5.7288 c 0,0.11864 -0.067797,0.22017 -0.18644,0.22017 h -0.89831 c -0.11881,0 -0.18661,-0.10153 -0.18661,-0.22017 v -7.9661 c 0,-0.10169 0.067797,-0.20339 0.18661,-0.20339 h 0.64407 c 0.27119,0 0.44068,0.27119 0.44068,0.49153 v 0.47458 c 0.71186,-0.67797 1.5085003,-1.0339 2.3898003,-1.0339 0.84746,0 1.5254,0.3222 1.8814,0.55949 z" />
    <path
       id="path25"
       d="m 21.694719,22.3222 c 0.10169,0.11864 0.10153,0.20373 0.01678,0.30525 -0.77966,0.83051 -1.8305,1.4912 -3.1017,1.4912 -2.3559,0 -4.3051,-1.8642 -4.3051,-4.3049 0,-2.4407 1.9492,-4.322 4.3051,-4.322 1.2712,0 2.3051,0.59322 2.9661,1.339 0.10169,0.11864 0.10169,0.22034 0.01695,0.32203 l -0.45763,0.54237 c -0.08475,0.08475 -0.15254,0.10169 -0.30508,-0.0339 -0.49136,-0.54237 -1.2202,-0.9661 -2.1524,-0.9661 -2.1017,0 -3.1356,1.6441 -3.1356,3.1186 0,1.4407 1.0339,3.1017 3.1525,3.1017 0.93254,0 1.6273,-0.45763 2.2544,-1.1356 0.13559,-0.11864 0.22017,-0.08491 0.32203,0.01695 z" />
    <path
       id="path23"
       d="m 30.694727,23.62712 c 0.15254,0.16966 0.08458,0.37271 -0.13576,0.37271 h -0.98305 c -0.11864,0 -0.20339,-0.05085 -0.28814,-0.13543 l -4.4407,-4.0678 v 3.9831 c 0,0.13559 -0.0678,0.22017 -0.22034,0.22017 h -0.83051 c -0.15238,0 -0.22017,-0.08458 -0.22017,-0.22017 v -12.119 c 0,-0.54237 -0.0678,-0.74576 -0.10169,-0.94915 -0.01678,-0.15254 0.03406,-0.27119 0.15271,-0.27119 h 0.77966 c 0.27119,0 0.44068,0.16949 0.44068,0.4239 v 8.6269 l 3.8812,-3.7625 c 0.08475,-0.10186 0.15254,-0.11881 0.25424,-0.11881 h 0.98305 c 0.20339,0 0.28814,0.22034 0.15254,0.37288 l -3.8644,3.661 z" />
    <path
       id="path13"
       d="m 38.084576,16.1019 c 0.15254,0.10169 0.18661,0.16933 0.10186,0.28797 l -0.49153,0.71186 c -0.05085,0.10169 -0.13559,0.11864 -0.25424,0.0678 -0.47458,-0.25424 -0.84746,-0.42373 -1.4746,-0.42373 -0.61017,0 -1.4914,0.25424 -2.1527,1.3051 v 5.7288 c 0,0.11864 -0.0678,0.22017 -0.18644,0.22017 h -0.89831 c -0.11881,0 -0.18661,-0.10153 -0.18661,-0.22017 v -7.9661 c 0,-0.10169 0.0678,-0.20339 0.18661,-0.20339 h 0.64407 c 0.27119,0 0.44068,0.27119 0.44068,0.49153 v 0.47458 c 0.71186,-0.67797 1.5085,-1.0339 2.3898,-1.0339 0.84746,0 1.5254,0.3222 1.8814,0.55949 z" />
  </g>
</svg>
