<svg viewBox="0 0 265 80" preserveAspectRatio="xMidYMid meet" class="css-1y5supu" id="bbcbfbdb"><defs id="SvgjsDefs1028"></defs><g id="SvgjsG1029" featurekey="root" fill="#000000"></g><g id="SvgjsG1030" featurekey="symbol1" fill="#ffffff" transform="matrix(1.0294117647058822,0,0,1.0294117647058822,-1.3235294117647047,-6.470588235294116)"><g><polygon points="61,23.8 53.1,16 23.2,45.9 11,36 11,73.8  "></polygon></g><g><polygon points="30.2,65.4 38.1,73.3 68,43.4 79,54.5 79,16.7  "></polygon></g></g><g id="SvgjsG1031" featurekey="text1" fill="#ffffff" transform="matrix(4.386513414535005,0,0,4.386513414535005,97.02647111853075,-35.79678367975516)"><path d="M5.8303 23.50864 c0.050847 0.10169 -0.050681 0.18678 -0.16933 0.25458 c-0.3222 0.16949 -0.89847 0.32169 -1.5425 0.32169 c-1.7627 0 -2.1864 -1.0169 -2.1864 -3.1186 l0 -4.1186 l-1.0508 0 c-0.11864 0 -0.20339 -0.067797 -0.20339 -0.20339 l0 -0.25424 c0 -0.10169 0.016949 -0.16949 0.11864 -0.23729 c1.0339 -0.49136 1.5085 -1 1.9322 -3.0169 c0.033898 -0.10169 0.067797 -0.16949 0.15254 -0.16949 l0.20339 0 c0.11864 0 0.13559 0.067797 0.13559 0.18644 l0 2.4576 l2.1017 0 c0.11864 0 0.22017 0.084746 0.22017 0.22034 l0 0.81356 c0 0.11864 -0.10153 0.20339 -0.22017 0.20339 l-1.7798 0 c-0.13559 0 -0.25424 -0.016949 -0.33898 -0.050847 l0 4 c0 1.322 0.084746 2.0847 1.1017 2.0847 c0.50847 0 0.76271 -0.08458 1.0339 -0.16933 c0.16966 -0.050847 0.30525 -0.017115 0.33915 0.11848 z M13.13542372881356 16.1019 c0.15254 0.10169 0.18661 0.16933 0.10186 0.28797 l-0.49153 0.71186 c-0.050847 0.10169 -0.13559 0.11864 -0.25424 0.067797 c-0.47458 -0.25424 -0.84746 -0.42373 -1.4746 -0.42373 c-0.61017 0 -1.4914 0.25424 -2.1527 1.3051 l0 5.7288 c0 0.11864 -0.067797 0.22017 -0.18644 0.22017 l-0.89831 0 c-0.11881 0 -0.18661 -0.10153 -0.18661 -0.22017 l0 -7.9661 c0 -0.10169 0.067797 -0.20339 0.18661 -0.20339 l0.64407 0 c0.27119 0 0.44068 0.27119 0.44068 0.49153 l0 0.47458 c0.71186 -0.67797 1.5085 -1.0339 2.3898 -1.0339 c0.84746 0 1.5254 0.3222 1.8814 0.55949 z M21.694718644067798 22.3222 c0.10169 0.11864 0.10153 0.20373 0.016784 0.30525 c-0.77966 0.83051 -1.8305 1.4912 -3.1017 1.4912 c-2.3559 0 -4.3051 -1.8642 -4.3051 -4.3049 s1.9492 -4.322 4.3051 -4.322 c1.2712 0 2.3051 0.59322 2.9661 1.339 c0.10169 0.11864 0.10169 0.22034 0.016949 0.32203 l-0.45763 0.54237 c-0.084746 0.084746 -0.15254 0.10169 -0.30508 -0.033898 c-0.49136 -0.54237 -1.2202 -0.9661 -2.1524 -0.9661 c-2.1017 0 -3.1356 1.6441 -3.1356 3.1186 c0 1.4407 1.0339 3.1017 3.1525 3.1017 c0.93254 0 1.6273 -0.45763 2.2544 -1.1356 c0.13559 -0.11864 0.22017 -0.084912 0.32203 0.016949 z M30.694727118644067 23.62712 c0.15254 0.16966 0.08458 0.37271 -0.13576 0.37271 l-0.98305 0 c-0.11864 0 -0.20339 -0.050847 -0.28814 -0.13543 l-4.4407 -4.0678 l0 3.9831 c0 0.13559 -0.067797 0.22017 -0.22034 0.22017 l-0.83051 0 c-0.15238 0 -0.22017 -0.08458 -0.22017 -0.22017 l0 -12.119 c0 -0.54237 -0.067797 -0.74576 -0.10169 -0.94915 c-0.016784 -0.15254 0.034064 -0.27119 0.15271 -0.27119 l0.77966 0 c0.27119 0 0.44068 0.16949 0.44068 0.4239 l0 8.6269 l3.8812 -3.7625 c0.084746 -0.10186 0.15254 -0.11881 0.25424 -0.11881 l0.98305 0 c0.20339 0 0.28814 0.22034 0.15254 0.37288 l-3.8644 3.661 z M38.08457627118644 16.1019 c0.15254 0.10169 0.18661 0.16933 0.10186 0.28797 l-0.49153 0.71186 c-0.050847 0.10169 -0.13559 0.11864 -0.25424 0.067797 c-0.47458 -0.25424 -0.84746 -0.42373 -1.4746 -0.42373 c-0.61017 0 -1.4914 0.25424 -2.1527 1.3051 l0 5.7288 c0 0.11864 -0.067797 0.22017 -0.18644 0.22017 l-0.89831 0 c-0.11881 0 -0.18661 -0.10153 -0.18661 -0.22017 l0 -7.9661 c0 -0.10169 0.067797 -0.20339 0.18661 -0.20339 l0.64407 0 c0.27119 0 0.44068 0.27119 0.44068 0.49153 l0 0.47458 c0.71186 -0.67797 1.5085 -1.0339 2.3898 -1.0339 c0.84746 0 1.5254 0.3222 1.8814 0.55949 z"></path></g></svg>