<svg viewBox="0 0 165 80" preserveAspectRatio="xMidYMid meet" class="css-1y5supu" id="hbfehhfe"><defs id="SvgjsDefs1052"></defs><g id="SvgjsG1053" featurekey="root" fill="#e7d8fb"></g><g id="SvgjsG1054" featurekey="text1" fill="#c70724" transform="matrix(3.931848155293183,0,0,3.931848155293183,-1.4940995851641516,-9.34469697372127)"><path d="M5.72 16.96 l0.88 0 l0.26 -0.16 l0 3.38 l-0.28 -0.14 l-1.06 0 c-1.56 0 -3.12 -0.36 -3.84 -2.5 l0 -6.08 l-1.08 0 l-0.22 0.18 l0 -3.42 l0.22 0.2 l1.08 0 l0 -3.3 l-0.22 -0.2 l3.58 0 l-0.22 0.24 l0 3.26 l1.62 0 l0.22 -0.2 l0 3.42 l-0.22 -0.18 l-1.62 0 l0 5 c0.12 0.3 0.48 0.52 0.9 0.5 z M8.58 8.48 l-0.16 0 l0.16 0 z M8.42 8.48 l0.16 0 l1.32 0.88 c0.64 -0.68 1.56 -0.92 2.42 -0.92 c0.8 0 1.66 0.18 2.8 0.98 l0.82 0.7 l-1.78 2.44 c-1.38 -1.34 -2.12 -0.98 -2.54 -0.7 l0 7.96 l0.18 0.18 l-3.56 0 l0.18 -0.18 l0 -11.34 z M20.42 11.54 c-0.34 0 -0.62 0.28 -0.62 0.64 l0 4.14 c0 0.34 0.28 0.62 0.62 0.62 l2.4 0 l0.26 -0.12 l0 3.32 l-0.28 -0.14 l-2.38 0 c-2.18 0 -3.8 -0.92 -3.8 -3.66 l0 -4.2 c0 -2.14 1.62 -3.68 3.74 -3.68 l2.24 0 l0.28 -0.14 l0 3.34 l-0.26 -0.12 l-2.2 0 z M28.14 5.5600000000000005 l0 6.88 l0.32 0 l1.8 -3.94 l3.58 0 l-2.72 5.7 l2.74 5.8 l-3.52 0 l-1.96 -4.34 l-0.24 0 l0 4.16 l0.18 0.18 l-3.58 0 l0.18 -0.18 l0 -14.26 l-0.18 -0.18 l3.58 0 z M35.06 8.48 l-0.16 0 l0.16 0 z M34.9 8.48 l0.16 0 l1.32 0.88 c0.64 -0.68 1.56 -0.92 2.42 -0.92 c0.8 0 1.66 0.18 2.8 0.98 l0.82 0.7 l-1.78 2.44 c-1.38 -1.34 -2.12 -0.98 -2.54 -0.7 l0 7.96 l0.18 0.18 l-3.56 0 l0.18 -0.18 l0 -11.34 z"></path></g></svg>