<svg viewBox="0 0 170 80" preserveAspectRatio="xMidYMid meet" class="css-1y5supu" id="ehgdfecf"><defs id="SvgjsDefs1324"></defs><g id="SvgjsG1325" featurekey="root" fill="#f3db06"></g><g id="SvgjsG1326" featurekey="text1" fill="#b234f6" transform="matrix(4.285714285714286,0,0,4.285714285714286,-0.0000020435878208705357,-32.85715103149414)"><path d="M1.48 12.12 l4.08 0 c0.04 0 0.08 0.04 0.08 0.08 l0 1.34 c0 0.06 -0.04 0.06 -0.08 0.06 l-4.08 0 l0 5.18 c0 0.62 0.14 1.18 0.42 1.68 c0.9 1.3 2.16 1.94 3.74 1.94 l0 1.6 l-0.12 0 c-0.98 0 -1.9 -0.22 -2.8 -0.66 c-1.82 -1.04 -2.72 -2.34 -2.72 -3.86 l0 -9.4 c0 -0.04 0.02 -0.06 0.08 -0.08 l1.32 0 c0.04 0 0.08 0.02 0.08 0.08 l0 2.04 z M6.66 14 l1.28 0 c0.04 0 0.08 0.02 0.08 0.06 l0 1.46 c1.08 -1.02 2.26 -1.52 3.58 -1.52 l0.06 0 c0.06 0 0.08 0.02 0.08 0.06 l0 1.14 c0 0.06 -0.32 0.12 -0.96 0.18 c-0.96 0.3 -1.68 0.84 -2.2 1.6 c-0.38 0.68 -0.56 1.32 -0.56 1.88 l0 5.08 c0 0.04 -0.04 0.06 -0.08 0.06 l-1.28 0 c-0.04 0 -0.06 -0.02 -0.06 -0.06 l0 -9.88 c0 -0.04 0.02 -0.06 0.06 -0.06 z M17.72 14 l0.24 0 c1.66 0 3.06 0.74 4.16 2.2 l0.18 0.28 l-0.08 0.04 l-1.56 0 c-0.84 -0.82 -1.78 -1.24 -2.8 -1.24 c-1.62 0 -2.8 0.84 -3.54 2.52 c-0.12 0.42 -0.18 0.78 -0.18 1.06 l0 0.32 c0 1.2 0.6 2.2 1.8 3.04 c0.64 0.34 1.22 0.5 1.74 0.5 l0.36 0 c0.9 0 1.78 -0.4 2.6 -1.2 l1.58 0 c0.04 0 0.08 0.02 0.08 0.06 c-1.18 1.6 -2.56 2.42 -4.12 2.42 l-0.7 0 c-1.26 0 -2.48 -0.6 -3.66 -1.84 c-0.74 -0.98 -1.1 -2 -1.1 -3.06 l0 -0.28 c0 -1.68 0.86 -3.08 2.62 -4.22 c0.82 -0.4 1.62 -0.6 2.38 -0.6 z M23.32 10.64 l1.28 0 c0.04 0 0.08 0.02 0.08 0.06 l0 4.14 c4.16 -2.8 6.28 -4.2 6.32 -4.2 l2.4 0 l0 0.04 l-4.88 3.32 c1.6 0 2.96 0.72 4.1 2.18 c0.58 0.82 0.88 1.82 0.88 2.98 l0 4.78 c0 0.04 -0.02 0.06 -0.06 0.06 l-1.28 0 c-0.04 0 -0.06 -0.02 -0.06 -0.06 l0 -4.96 c0 -1.52 -0.8 -2.68 -2.38 -3.46 c-0.56 -0.16 -1.02 -0.26 -1.38 -0.26 c-1.28 0 -2.32 0.62 -3.14 1.82 c-0.36 0.6 -0.52 1.18 -0.52 1.76 l0 5.1 c0 0.04 -0.04 0.06 -0.08 0.06 l-1.28 0 c-0.04 0 -0.06 -0.02 -0.06 -0.06 l0 -13.24 c0 -0.04 0.02 -0.06 0.06 -0.06 z M34.540000000000006 14 l1.28 0 c0.04 0 0.08 0.02 0.08 0.06 l0 1.46 c1.08 -1.02 2.26 -1.52 3.58 -1.52 l0.06 0 c0.06 0 0.08 0.02 0.08 0.06 l0 1.14 c0 0.06 -0.32 0.12 -0.96 0.18 c-0.96 0.3 -1.68 0.84 -2.2 1.6 c-0.38 0.68 -0.56 1.32 -0.56 1.88 l0 5.08 c0 0.04 -0.04 0.06 -0.08 0.06 l-1.28 0 c-0.04 0 -0.06 -0.02 -0.06 -0.06 l0 -9.88 c0 -0.04 0.02 -0.06 0.06 -0.06 z"></path></g></svg>